<mxfile host="app.diagrams.net" agent="Mozilla/5.0 (X11; Linux x86_64) AppleWebKit/537.36 (KHTML, like Gecko) Chrome/134.0.0.0 Safari/537.36" version="27.0.9">
  <diagram name="Page-1" id="NNMU5uTabChcALqVo9vR">
    <mxGraphModel dx="2231" dy="992" grid="1" gridSize="10" guides="1" tooltips="1" connect="1" arrows="1" fold="1" page="1" pageScale="1" pageWidth="3300" pageHeight="2339" math="0" shadow="0">
      <root>
        <mxCell id="0" />
        <mxCell id="1" parent="0" />
        <mxCell id="07kiqGvhEyyWiOE_7tN8-1" value="" style="shape=image;verticalLabelPosition=bottom;labelBackgroundColor=default;verticalAlign=top;aspect=fixed;imageAspect=0;image=data:image/png,iVBORw0KGgoAAAANSUhEUgAAA3YAAALNCAIAAADstWTYAAAAA3NCSVQICAjb4U/gAAAgAElEQVR4XuydD1yT1f7H541qFNVIq9HVX85r5bxaQnpzqJUzKjErIS0hrZx6r6FWgpZCVobaNbB7E6xUtLJhZWBljJScdbGt0pilOU2vo7LLKouVFDMpf58xnWN/YINtPNs+z+u+uvLs/Pl+32fPOZ+d8z3n6XL8+HERLxIgARIgARIgARIgARIIHIE/Ba4olkQCJEACJEACJEACJEACNgKUmPwekAAJkAAJkAAJkAAJBJhAjL28Ll26BLhgFkcCJEACJEACJEACJBBlBBwRmC1mMXte0jPKONBdEiABEiABEiABEiCBjhJw15Bd7GLTMYsZFxd35plnLlmyZNKkSR2tjflJgARIgARIgARIgAQil8Dq1avnzJlz9OjRhoYGu5eeZzHx2ZEjR9avX7927dprr71Wq9VGLhN6RgIkQAIkQAIkQAIk0E4CUInQilCM0I1Qj+6luM5iOrTnCy+8sGDBgmHDhs2fP/8vf/mLe07eIQESIAESIAESIAESiDYC//3vfyERq6urIRHvueceu/uO9XCvs5gOTMiDInr16nXppZeiiKampmgjSH9JgARIgARIgARIgAQcBKAGoQmhDKEPoRId+tIjotYOLYIgffTRR1HE119/jYnMkpISj0XwJgmQAAmQAAmQAAmQQGQTgA6EGoQmhDKEPmzzMCKvC+UumN577z1MikK9otARI0ZENkR6RwIkQAIkQAIkQAIkYCewZcuWxx9/PCYmBlOY1113nUcs7gvlvkpMe3EvvvgihOaQIUNQR+/evT3WwZskQAIkQAIkQAIkQAIRQODAgQMQfh988AGE3913392KR+4Ss7WFcveCUDpmRyEuL7/88kceeeTYsWPuaXiHBEiABEiABEiABEggrAlA40HpQe9B9UH7ta4vPXrqn8S0FwEli8q++eYbLMmvWrXKY7m8SQIkQAIkQAIkQAIkEI4EoO6g8aD0oPeg+trngn8L5S51vP/++5g+/e233xCgef3117fPAuYiARIgARIgARIgARIQAoF3330XYZdnnHEGlCWOvfTdJPeF8g5JTHvFL730EoSmQqGw72P33RqmJAESIAESIAESIAESEAKB/fv3Q87p9XrIuYkTJ/prkrvEbM9CuUutsAPRoJdddplcLs/Ly8Okpr9mMT0JkAAJkAAJkAAJkECnEIByg36DioOWg6Jrh770aHYAJKa9XMSEYsG+rq4Oi/crV670WBlvkgAJkAAJkAAJkAAJCIcANBuUG/QbVBy0XAANC8BCuYs1//nPfzDRarVaEaCZkpISQFtZFAmQAAmQAAmQAAmQQEAIVFVVIexSLBZjZfyaa67pYJnuC+WBl5h2E/FadAjNq6++GnZj3rWDdjM7CZAACZAACZAACZBAQAh88cUXEGkfffQRRNqECRMCUqa7xAzYQrmLfbAYcaN9+vT561//mpube/To0YA4wEJIgARIgARIgARIgATaRwB6DKoM2gwKDTotUPrSozHBkpj2yhA9iqX9b7/9Fsv8K1as8GgBb5IACZAACZAACZAACQSbAJQY9BhUGbQZFFqwqwvWQrmL3dXV1ZiS/fXXXxGgecMNNwTbK5ZPAiRAAiRAAiRAAiRgJ7B582aEXZ511llYGR82bFgwsLgvlIdIYtqdefnllyE0Bw0aBA/xSqJgeMgySYAESIAESIAESIAE7AT27dsH6bV9+3ZIr7vuuit4WNwlZnAXyl08gW+IMO3bt2///v3nzZuHXefBc5UlkwAJkAAJkAAJkEDUEoDKgtaC4oLugvoKqr70CDmkEtNuAeJMEQTw/fffIyDg+eef92gWb5IACZAACZAACZAACbSPAPQVVBa0FhQXdFf7CulgrpAulLvYum3bNkzeNjQ0IEDzxhtv7KAnzE4CJEACJEACJEACUU5g06ZNCLuMi4vDyvjQoUNDRsN9obwzJabdbbVaDaF51VVXgQW20IeMBSsiARIgARIgARIggYghsHfvXgiqTz75BIIqMzMzxH65S8xOWCh38RkUEIvar1+/K6+8cu7cuY2NjSGGwupIgARIgARIgARIIHwJQDtBQUFHQU1BU4VeX3pE1/kS024WIlIRLvDDDz8gdOC5557zaCtvkgAJkAAJkAAJkAAJOBOAaoJ2goKCjoKaEg6czl8od2HxwQcfYJr3559/RoDmTTfdJBxStIQESIAESIAESIAEhEPgnXfeQdjlueeei5XxIUOGdK5h7gvlgpOYdkClpaUQmomJiaAml8s7lxprJwESIAESIAESIAHhEDAajZBJBoMBMikjI0MIhrlLTKEslLvQAS9ErV5xxRVQmQ8//DBeCyQEfLSBBEiABEiABEiABDqRABQRdBHUETQSlJJA9KVHIAKVmHZbEbuKwIL6+noEGTz77LMeHeBNEiABEiABEiABEogGAtBCUETQRVBH0EgCd1mgC+Uu1HQ6HSaELRYLAjRHjhwpcKY0jwRIgARIgARIgAQCSKCyshJhlxKJBCvjycnJASw5UEW5L5SHh8S0+79u3ToITezJB1+8DSlQUFgOCZAACZAACZAACQiTwJ49eyB+Pv30U4if8ePHC9NIWOUuMQW9UO7CEWQR3zpgwACc0/7QQw/98ssvggVNw0iABEiABEiABEigIwSgc6B2oHmgfKB/hKwvPboZThLT7gCiXBGC8NNPPyEcYfny5R694k0SIAESIAESIAESCF8CUDjQOVA70DxQPuHoSDgtlLvw1ev1mDr+8ccfEaCZmpoajvRpMwmQAAmQAAmQAAk4E9BoNAi7PP/887EyrlAowgWO+0J5GEtMO/RXXnkFQrN///5oib/+9a/h0hK0kwRIgARIgARIgAScCXz++eeQNLt27YKkufPOO8MLjrvEDL+FchfiaANEwiYlJQ0aNGjOnDkNDQ3h1SS0lgRIgARIgARIIMoJQL1Aw0DJQM9A1YSdvvTYfGEvMe1eIR4WwQpHjhxB4EJxcbFHV3mTBEiABEiABEiABIRGALoF6gUaBkoGekZo5rXbngiRmPA/ISEBR5K++eabFRUVf/vb3/DfdkNhRhIggdYJaKbGY00k4T6tp2TW0nGx+LTvHL2nT3mPBEiABEjgBAGHYoF6gYaBkokkNJEjMe2tMnjwYMTJZmdnY8J53Lhxu3fvjqTWoi8kQAIkQAIkQAIRQAD6BCoFWgWKBboF6iUCnHJxIdIkpt29O+64AzGzAwcOvPrqq2fPno3J58hrOXpEAiRAAiRAAiQQdgSgSaBMoE+gUqBVoFjCzgUfDY5MiWl3Hj8OENaAk0sR4lBUVOQjESYjARIgARIgARIggWAQgBqBJoEygT6BSglGFcIpM5IlJihLpVIcXrpx40a83BMbtd5++23hoKclJBAVBA4Vj7BFZnq5YkeVmE9gsNZqC2emJ8sTYpE+Nj6hf3L6rGLtIV8hGZ9K9lBPbHLhXlsJxsVJtlJvKD5Zm1OxO/OSTu/S5YLMUotItCHzRCGxIwprXas2PX2yisSFhqZTn56wvH9C/DmxXWJjEy5NGjV1oeaA1TW/yGraWDj9luReCfGxuBL6JqflFG89aZHPoFyLbbY5Ns1m/qmrybBwkM0Vzy67FsG/SYAEgk4ACgQ6BGoEmgTKBPok6FV2dgUxnW1AKOrHdDQial977TWcj//iiy/iuCmcoxmKilkHCZCAJCljdq7CLsishtJlGpNInjYjTS5uRhMjS4qz/b/1w4XK0Xn6wyJJv9S0CbJ4Ub2xWlP+9PTydZqCyrLsAfbUrdGsM5mg6WSjszP6NSduMmmeLXUIQfl4VfKi6dpqtfpAVnbvFuUYXitHMunozDTJyftisdiq02w0Zc+QOSU1lW80WG0fWZ3Fo3V34ajhOVqb5UrlGFl8TKNpu1a7Mk+zQVuwdUt2P0cBFu2c1PSn9RaxTJGSntpdXH9Ap4Xi3KjWLNWUzUgU+waqNQROn5nX5BXscNe4PuZmMhIggUASwDmXOO0Sb4CE/ED8ZSCLFnhZx5svh5H2PyP4v0uWLDn77LMRXYuXMkWwm3SNBIJKoGKKTY5Jp23xVEujeqxN5Mln61w//X5VKj4Rp6rrW37SqMvugxzixNlbTn1yrK5sitx2d3D+nmOuJbn9XbdqpFgUI1VpTn5yrELVDZkVBUb7nTr1GJvNiQtqWuQ9VpMLFRgjy9I22u6XZ9gMHJ6qjBOJU4rqnJOaipRikTRFmYgUA/JrTphUby9WNqHMKXF9xRSbNpWML3O4U1eaIcUvemlqkaG5ouarXpurgMIWK/J3Odd0/Lg3UC1TnfjLbvMYJ6j1FaqeqF4iiXHzwmMJvEkCJBAcAlAa0BtQHdAewalBQKW6K8kIXyh3OOz4B2JsEQDR2NiIYIhly5a5J+AdEiCBNgmIY2wisuV0XpuZvCawVhaVHBCJeqoK5isdM4nQi2kLslPjRNYdavUOr3lPfNBkMu63QinKnacdW2SSpk5IhcgzlKr1Tmvcoh3qcqyk907LHOY0USpRpg0XW/XlZU7L9KaN5bom6agUl5e5iRWz1GWl6lUL0pwWvSSpE9NkMSLLdp3xRF0m9fJyc5NYOb8oy2lGVjI8Lx9i1KovWeHx+Ke2vPbyuWFpnvqQTDUjPaKOP/HiLG+TgGAJQGNAaUBvHDx4ENpDsHYGz7Cok5hAedFFF+GYUyydb9q0Cfu5EBURPL4smQQikoD98DaLweAckthuTw3VekuTSDIsNbl50fzUJVUqIciaTPrtpjYKt+wxQg6KZbKeXhNKRqrSu4tEB8rVW0+tIOvLNVCBiRkqRYugoQTlGKW4QVe+0XyyOLNmo87abVTqsFiRs0JFlUNT08ZnKFGv1Woxm82HTKZak6lRZNPKFku9Pf9hrXanFbO0qSkuElicnKKE8DXp9SfFqFf7ff2gtjhvmUE8MjcXKtnXPExHAiQQSALQFVAX0BhQGtAbF154YSBLD5+yoiIW02Nz4Hh2xN6uX79+3rx59gDNK664wmNK3iQBEnAhIB+ZmrjIYNhZoJopLZ6VnthbgghFi9lkMhlrdtZodvmlbaymQ3UoX9YzwWki0V5hgqwH/mGt+xpSz+v8pC3pLgMkmrhP0okQT48NJlaqxsuLFxvL1moKUtJsdTXpyzYYsU6dOd62Iu98JYxMU8ZptBsrzNNUtunJQ2Xleqt0bJpSbMh3Sdpk1i7LL3ypTLvbbG2hPp3SQXTakJg1CyYbXTpdS43tEyRAaIFLye3506JZUKhpUuQvUsnqpje2pwTmIQESaD+Bzz77DGGX+/btQ9jl2LFj219QROSMXolpbz58A3AVFBQMGTJk6tSp+E6cd955EdGydIIEgklgYF7xPH3qAq3h2cnJz07uWE3WRpvIEotj3RQmbopxEwvybYgl005jHeZB+8tbV2mJEzMVT+fpK9Xlh9MyEKlZXVZei8jLzMzebh5IR2GtXLO1vMKsgsY0V2p0VknaaKUkxtAyqbl8UnL6WpOoW2Lagzmp/WXxcWJxjMhaq86bVWp0JLWHFDSZtGtL3GpqvmGttwCCyySu56St3bXuKMhbZ5JNWWXbZmTT7bxIgARCRABhlxCXK1asePTRR19//fUQ1SrsaqJxody9RXJychCgefToUYRNPPPMM+4JeIcESKAlAbHikS3GanX+gxlpKQrFYIViOHaCq7IXFKnf2pKPnTd+XHZtCRnpPvcJaXZCfrZantWwHXOB4qRBSa0mE4n6qGwxl4c1atsKuFW7odzUJEmdkGmbp3S9pKNsa+Xa8kqkNFds0Folqekpbn59WARJJ4pT5FfpypZkqyakpY1JTR2dmja8b4ukcWLbunlcWtmprT4tg/SPlGV0UF9iZ4/IVDKv2CBJy5+HjUm8SIAEQkcAygH6ASoCYZdQFKGrWNg1RfsspqN1ECqBA1Hvvvtu/ArBujl+hdxyyy3CbjtaRwKdTEA6OCN3cIabEdbStW73WrshlvXEIrgRIYxWkW27ttOFlXf8JU6QtbpKbtVpqy2IdExWeNKKLQqUZk5Izasq126oMI+XlW80iaQZmaNPbTFyTis9sVautYwWaaqtktHp2Gbucpm3601YoFdkqloeq2Tdvwf3T13dZQgCMDTVmQ5ha5FrIYH5Wyy2bMjL32pVLMrPaBNDYKpkKSRAAqK33nrr8ccfv/jii+3Hb5OIMwHOYrb4PuBYVETpzp07Ny8vLz09/dNPP+XXhQRIINgEEoclY8uLpVqjbWhZ1SGtZjf2icuVw1oTTdj6rcFUY0+lsk/blkrGqNKlIuvWcvXaUmwYx3GYqZ4VJg4Ysq2VW6srNJUVmMNUYpXcrfjGpuYV/Obl/FNXk6nkWY0FfztUZjelcpBYZDWUQdS6XLWYKDWYXRx3TdT23+KmmoL5pebeWYUzWg8WaLsopiABEvCFABQCdALUAjQDlAP0gy+5oioNJaaH5r799tsRsZucnDxs2LBZs2ZZLLbBghcJkECQCIhTVCqcl474xQXaUw+b1VQ6pxCiU5KSpUJkodfLollThilD+Zj0lrvCvWSIU2aMlYkatPnzyswiWebEVtaUm9fKLQb1eoM1Tpk+0l1hihL69MXZk9btGpvGtV848n1OZmFTkm0+1mqqO2y/K1NNSZPGWPWLJi/80Kk/OazNm5SenpqctvJU3KYXu9u4ba0sLt4rzViQp+AaeRuo+DEJdJQAVAG0ARQCdALUAjRDR0uM0PxcKPfasDgudeLEiVg3R4AFtgHdf//9XpPyAxIggY4QECvyVubrR+donxolr1KOUsjETXU1WzX6A1ZxP1XJ8uY93Z4uc1VhUaWufD30nVh8oCxnTtmpVE2mGkwNQvAtzamXp05/UHmyELFyYob82YXGw1ZRv6zMwa0pMttauXiytkokHpnncbJTnJI1fYA6b0e5atiIipGJ8Q0mmG2IyyyrVGlTkg17tQszJhtT0nLmpkrHF6u3m9KXafOGy9XDlMk9Y0UWk26r1ngYM6lFJdM6OvVotVgkKUX5Yz3oYE/keI8ESKCdBP79739DGGRkZCDssls3bBvk5Z2APebc8bmAzokXjCnbt28fPXp0YmLiG2+8IRijaAgJCJaA/2/3aXal0bSlaEaaorcUO7LFcVLZwFTVorI9Lu8Baul0zSOJ3vs2p09OvYzHnn9PgU1ZihMX7XGF6PqmnLpVo20p01aftGNXfiJ+mDsXWLel4F6lXIqN5GJJz8TUGUW6722l1r2VregpFsdJ5ONXHTxRTeNBTUHWGIVcKrH52E0qH56RvUJX5/7uIv/f7gNvcvUtNxNtzkL4ges7ilwd5t8kQAK+EoAGgBKAHoAq8DVPNKVzV5Jd4D7udunSxf6Z/U+feu0oS1RWVuaY0RwwYECUeU93SUCIBAzzk5KeMKaurqu418vs3eGSUT0ma/rk12zPtUlD+2XVTu8/otisLNq1JaunEP2iTSRAAoIisHPnTggAnDyDJU3EXwrKNuEY464kGYvpa+vYd/8MHTr02muvffDBB+vrT7y2w9f8TEcCJCAMAqY1heoDWJ7OyuwpDINoBQmQgFAJYKzHiI9xH6O/fX+PUC0Vol2UmP61CiJ88Tvm999/R4Dmv/71L/8yMzUJkEBnE7BsWzh5vsYSp5g+L83LzGdnm8j6SYAEhEEAozzGeoz4CLvE6C8Mo8LJCkpMv1sL4b04ZLWqqmrr1q32AE2/i2AGEiCBEBNoMhROTE+/oa88JU9rkSgXlNjef8OLBEiABDwRsIddYpTHWI8Rv2vXrp5S8V4bBCgx2wDk7eOrrrrqzTfffOSRRx577LExY8YYDC6vlfOWj/dJgAQ6hUC9qVpTXl0n6pOavVpX8WBrLzPvFPtYKQmQgBAIYDTHmI6RHeM7RnmM9UKwKkxt4HafADTc008/jcP977nnHgQCn3/++QEokUWQAAmQAAmQAAmEkMCPP/6IPT0vvPACXu+H+MsQ1hwhVXG7T1AaEt9FBGpgMz6CNiA3g1IHCyUBEiABEiABEggOAYzdGMExjmM0p74MFGMulAeGJCYvcRzrli1b3n//fRxptGHDhsCUy1JIgARIgARIgASCRgDjNUZtjN0YwTGOcykygKS5UB5AmCeKwvcVk+2XXHIJ1s2TkpICXwFLJAESIAESIAES6BiBmpoaDNZffvklBmvEX3asMOb2cMI6ZzED/7Ww7/657rrrRowYgddO/vDDD4GvgyWSAAmQAAmQAAm0iwDGZYzOGKMxUtv397SrGGZqgwAlZhuA2v3xAw88gJAORL8ivGPp0qXtLocZSYAESIAESIAEAkUAIzLGZYzOGKMxUgeqWJbjToAS051JwO7Ex8fj4FYcrFVdXX3llVeWl5cHrGgWRAIkQAIkQAIk4A8BjMIYizEiY1zG6Iwx2p/cTOs3AcZi+o2sfRlwjitiPnr06IGYD56z1T6GzEUC0UigyaxdWVCyXqPfZaprEIm7yeSDlOkTsrLG8GjPaPw60Of2Efjkk08wBH/99dcYgm+77bb2FcJcrRPgoUWt8wnip/hOI7JYqVSmpKTMnDnz8OHDQayMRZMACUQGgcPavOHyEfcVlm41mqxiiURiPWzUbyjOSUtKmlhqaooMJ+kFCQSRAEZbjLkYeTH+YhSmvgwia7eiuVDuhiSYNxBfjOCP0047DYEghYWFwayKZZMACYQ7AXPpzMyF2yziPmkFmw82Hqmvq6trrK/TLVclxlmNa7MmP2sKdw9pPwkElQDGWYy2GHMx8mL8DWpdLNydACWmO5Pg3sE8BI54xRFcH3zwwRVXXFFWVhbc+lg6CZBAmBLYXVKwwSyKU+RvKMtOkYntXoilimmr1PMUYpFFV1pOjRmmbUuzg00AYytGWIyzGG0x5mLkDXaNLN+dACWmO5NQ3MFBr4g7fuKJJxYtWnTLLbfs2LEjFLWyDhIIIQH9rF4Izek7R9+izqrJCad3iR200CgSWbfl9Dq9S5cLMsstbmZZtdNlXbqc3mt6lVUkMi4cFIuiTl2xsfGyviMycko+dM1p3laSMy65b4/4WFuapBGTFpYfQAm2SzszoUUhLf/oNUtrS7Qhs2VNXWLjE3oNGjV5cbmxwfa5cXESEsTeUGy2F+r83515Sc3ulJ40yrK7fOGkUUmXJsTH2srpq8zMWaM/8eGh4hEuNbVwcFSJWWTeXlMXJ5GOVKn6uFYmT1HKYkTWQyaulbui4d9RTwDjKUZVjK0YYTHOYrSNeiSdBiCm02pmxSLRrc3XM888c+ONN2ZkZCAM+YILLiAYEogSAuLBmRn9Chfu1Kg3mNPulTp7ba0uLTskEvVOyxx+YvJOJBLLR2cm21NZ600GnXZdoXaDxvCWrijlxPyEcWX6qPswsSeRDU5OVYgtRp1uTZ52Y0XuBm3+ULEsZXpuXKO9FtPW4tIPLZKhqqxhJ+qNV8hOGdBdkTGyb2zz343mPfqtmpJ5mrLqopq3suTjVcmLpmur1eoDWdm9WzSU4bVyQ5NIOjozrdkc0/rJoyaVGBvEsuGp6SMTRIeNusrSwq3l5VUlW17KkEmSMmbnKuzBlFZD6TKNSSRPm5F2YgtPjCwpTiS9t6zu3hZVnPrjiMUmnOPEdiO9JOJtEoguAt9//z329JSWluIl44i/jC7nhekt3siJy2Gb/U/+N8QELBYLXop6zjnnPPXUUyGumtWRQJAI6B60iTb5bF2L8jerpDEi8cD8Pc13Dy7Fgq9InFJU1yJRY8UUm/JLXFDTfHtP/kCxKEaq2uycqE491pZGPFZdb79tLFDEQXUlZm8+ceP48XrdI7byRf1ydcdaVODZNiQpz7DZM7zgoFPyxu25ibgbI8/djrt16jE2CXnStpPpjtXk9kMaWZa20XZrf5ESqWJkGaUHm/9uvr6uUPVDQZLUFc7FHz/+/apUW62pJz1xZPD2j/qKe21sZdO2nCrcW1reJ4HoIIDRE2MoRlKMp9HhseC8dFeSXCh3MOnMf5x33nk4DBaHden1+v79+7/++uudaQ3rJoFQEZCNVSnjRFZMCu51qrJBW77RLBIrMscnejdEqhjW1yYfLfX2hXD9imJ9g0g6Pj//5KQmxJxiTp5qgFweZ9pzwHtJbX0iHqBMtqnKeks9/itNnZAKlWwoVeudN3TvUJfDBUy7DrMZBWO0FpF0bEHx+JMxlLjbPbVgQZo0xqJZUWps/2Zwi35xumqtSdQ9LX+e0lYZLxKIbgIYMTFuYvTEGIqRFONpdPMQkPeUmAJqDBwJiwjlhQsXPvnkk6NHj96+fbuAjKMpJBAMAt3TM0dLRFa9utTgKN66tbzisEg8LDOz5Up0y/othu17rFg9H25fPDdq9XWYCUweltxCdcWlFhn27NGr3cMZ/fBmr74GEZTdlMpmxSsZqUrvLhIdKFdvtYtb2019uQaqMTFDpbAFHxl11diHI04eaZvKdL4kw0fZ7Nut1bbv1DKLvnBcknKe1tIzrahSnQEzeJFAFBPAKImxEiMmxk2MnhhDoxiGEF1nLKbgWgVxyriWLVs2cuTIO++8EwGaF154oeCspEEk0BYBsdgm9uobToQ/ekkuSZuQLl1fYliv1s9PbNZnVs36CnMT7meeCJO052yy1KzJyalq/sNqMRm0mp2xygeLV81u1n1NdXW1VixMJ3R3EXX2zP7912rSFM6ps0tVq9mordTW98koWFac1q25HLFSNV5evNhYtlZTkJJmS9akL9tgbJ52ldsSNNWZYIxIbFyXM3mrS9V12OfUnADzoS4ftfWnWTN9ZHrxTpFsTIF6RbbCbkxbmfg5CUQkge+++w5hl6+88grCLmfMmBGRPkaAU5SYAm1EPDN33333448/jjO9oDJnz54tUENpFgl4ISDrL5eIjOYNhYUT+2YNlooOm4y7DLr1NZaWa8TiFFVm75JC26RgviIFR/FoyirNom4ZttnNFpfVsK7w1FSnSJwyGesAACAASURBVCwdmCpPEItQWrMwta+Xi0/3Yo1ft2u1xU81bzC3XxK5sr9M4jQ7mjgxU/F0nr5SXX44LQNSr7qsvBYRnI5pV7sxVmNliU1Qul8x9dYj7ndbv2MumZoJfSmfUqZdkeqvOm29aH5KAuFFAGGX0JdTp07FaZfnnntueBkfVdZyoVy4zY0nB8fG4livjz76qF+/fuvXrxeurbSMBNwISEbnZGGbjlmTo0iwHfRzQa+kGzILt2I5u+UVo8jMSBQ1mcrWaTH1Z6kq0xwWScdkprooTOftPsca6wxl0xN0xXNGJU8sNdvKE8fbJGCjtfU5U9e6Pf/tvN2n8fuDuqXK+g0LJw9X5n14cmW8j8oWc3lYo0bMqMiq3VBuapKknpp2Fcdj41GMNEvrJR7/WF1Riueqvd49oC6psoi6peUvob70CokfRDwBjIMYDTEmYmTE+Eh9KfAWp8QUeAOJcHgsYpkXL168ZMmSm2+++eOPPxa6xbSPBOwEcGZ4lU69IEs1PkM1Izt/eZluf/2eZ0ZJ3NZOEsdnYt+KuVKtabBo1mssMbLM8a1uZIkRSwek5i7NwXZx88aSslrouQRZT8xoWky1zYLT+bJarQ1Wa3u31+Cd4Ip7C/Kxe73BULJad7JgaeYEaGCIywqzVVe+0YRdQKemXWNkJ41BCGeArhj5qAezc+erXKM7A1Q8iyEBgRPA2IcREOMgRkOMiRgZBW4wzQMBSszw+BrYd//cdNNNo0aNysrK+vbbb8PDbloZ5QQkiRmPFK0qVa96piB3Wpqip1jspi9thHpnZmAb+GFt2Tp1Gebq+mTY92W3AU8iiUeKpnqL7VB0ebIiAROKusqKFhqzSZ/TH4ew982pbqOwVj8Wx0tsB1BaGppPo2y+JGNU6VIRdiap19qO8MRxmE7TrjLlMBwqZNVt1LgK3iajdr3WaHYU02q1zh/2TM1dVJA/gwrTZ2JMGCkEMN5h1MPYhxHQvr8nUjyLfD8oMcOpjadPn47QE7y2BAGa+DEXTqbTVhJojYA03TYpaC6fl6exiBMzMhM9KtGWJZgrNTWYm+wml/e0faCYmoVzMS0bF2avMZ1UcBbDU3kltc1nCSlaq76Nzxr0Fbb1fXFi/xMno9vSxykzxspEDdr8eWVmkSxzYotp18RJWRCDlo15WSuNp+Rkk1kzK3PUuBHJ95W7Ss82LBCJarWla0tL1+v9zthmyUxAAgImgJEO4x1GPYx9GAEFbClN80DAh47cQy7e6jQCOFq2oKAAO4EQ7PzXv/4Vm+nGjRvXadawYhIIEAHJaFVm99LiWgv2a5/Yl+1SMnaUr8zJqWy+22SpO1CjqTLg6MnUBXlpCHzE1Se7ZKkOb/cpndRXuzw5uYfYsl+n3W3B4Zi5K/OaT2D39cKO8oWz6uyxoNi8XlOt0R+wigdk509r3jB+4hIrJ2bIn11oPGwV9cvKHNyygt5Zq1YY8Haf8qlJshU47UgWa63bg3JqreLeGcVLM/zdr2PVF6smllt7Zm0Zo8CpnLxIIOIJvPbaa9jw2rdvX/tx0RHvb2Q6aA9Hd/jmJTqdt4VIYOPGjYMGDUpNTf3www+FaB9tIgF3Ai3f7uP8uW62TcCJR65q+aYfJGl+u4/zFSOWSOWKMVlFm13T1lWvyh6rkEslODJJ0l2uvDe/zOjhDTitv92nRV1xEtkAZcYj6hrHO4NOGb2nwKYsxYmL7O8qcvW2fldZ/r2pib2ltuObWinHh7f7NJY2n44EidnyNUWuVfJvEgh/AhjRMK5hdMMYF/7eRJEH7kqyC7zH3S5dutg/s//ZooflH8ImUFxcjJ96t99+O842kkr9nRwRtm+0LooIWMoz5OnrrBmlJvX4AJxtGQpyVu30/iOKzcqiXVuyeoaiQtZBApFNwGw2Y4EOu3mwQIf4y8h2NvK8c1eSjMUM+1bGc4gglbPPPhsBK//85z/D3h86EJ0EdhcXbDBj34+q+Q3gYXGZ1hSqD2CjT1Zmz7Cwl0aSgKAJYPzCKIaxDCMa9aWgm8pn4ygxfUYl4IRxcXE4ihZHhX3yySeIXHn11VcFbCxNIwE3Aoc00yfk662S1DnZrR5W5Jax825Yti2cPF9jiVNMn5cWNqK483CxZhJohQDGLIxcGL8wimEsw4jWSmJ+FEYEuFAeRo3lk6kVFRVYaOjatSvWzQcPHuxTHiYigc4hYNU+oSrebjbqtUYctz52la5UJRP4XpYmQ+GkfJ0ZbyE34i2XyiW6igedtpl3DkbWSgLhSgBhlxiwfvjhBwxYOJYoXN2g3c0EuFAe+V8EPKX4IYgjam+99dZp06bV1bm9TCXyGdDDcCFgewG4plJXF6dIe6QiDPSljWu9qVpTXl0n6pOavZr6Mly+abRTcAQwNmGEwjiF0QpjFvWl4FooEAZxFjMQFAVZxi+//IJtQEVFRfh1+PDDDwvSRhpFAiRAAiQQdQSefPJJTF7inEts60HwZdT5H6EOcxYzQhvWk1t4bnFoLd6FYDAY5HL5K6+84ikV75EACZAACZBAiAhgJMJ4hFEJYxNGKOrLEHHvpGo4i9lJ4ENbrUajwU/G+Ph4zGgqFB15z0lo7WZtJEACJEACEUEAJ6hjGKqvr8cwhGMvI8InOtGCAGcxo/QLYT+e/ZZbbhkzZsw//vGP//3vf1EKgm6TAAmQAAmElgBGHIw7GH0wBtmPVQ9t/ayt0wjw0KJOQx/6ihFbjfPGzjvvPJw9tnjx4tAbwBpJgARIgASiigDGGow4GHcw+mAMiirf6SwlZnR9B8466ywcb4vjxz799NM+ffqsW7cuuvyntyRAAiRAAiEhgPEFowzGGow4GHcw+oSkWlYiIAKMxRRQY4TYlMrKSkTG4MclImOSk5NDXDurIwESIAESiEgCOp0Og8tPP/2EwWXkyJER6SOdcifAWEx3JtF7B08+4q9vu+229PT0v//979988030sqDnJEACJEACHSaAcQSjCcYUjCwYX6gvO0w0vAvgQnl4t1/HrUcUNkJksNkc4TKLFi3qeIEsgQRIgARIIAoJYATBOILRBGMKRpYoJECXXQhQYvIrIYqNjcVBuDiobNeuXZdffnlpaSmhkAAJkAAJkICPBDBqYOzACIJxBKMJxhQfMzJZZBNgLGZkt6/f3r3zzjuIoTnnnHMQQzNkyBC/8zMDCZAACZBA1BD44IMPMGQcOXIEQ8ZNN90UNX7TUQ8EGIvpAQpvORNAH4FI7bS0tLFjx06dOvXQoUPkQwIkQAIkQAIuBDA6YIzASIHxAqMG9SW/Ie4EuFDuzoR3RIjXRjBN165dEVizcOFCEiEBEiABEiABBwGMCxgdMEZgpMB4QTIk4JEAJaZHLLwpEovFODIXR5p9/vnnl112mVqtJhQSIAESIIEoJ4CxACMCxgWMDhgjMFJEORC63woBxmK2AocfnSCwadMmRNucffbZiLYZOnQouZAACZAACUQbgW3btmEg+OWXXzAQ3HjjjdHmPv1tkwBjMdtExAQeCKA3QUz37bfffscdd0yZMuXrr7/2kIi3SIAESIAEIpEA+nz0/Oj/MQpgLKC+jMRGDopPXCgPCtaILBSR3Qi7ueCCCxCCk5+fH5E+0ikSIAESIAFnAujt0eej50f/j1GAcEjAdwKUmL6zYkrRmWeeicN1cfiZ0Wi89NJLX375ZUIhARIgARKISALo4dHPo7dHn4+eH/1/RLpJp4JHgLGYwWMb4SVv3rwZcTk4YhdxOcOGDYtwb+keCZAACUQNgerqanTvjY2N6N5vuOGGqPGbjnaIAGMxO4SPmZ0JoN9B9Pe4cePGjx8/efLkr776inxIgARIgATCmgB6cvTn6NXRt6OHp74M69bsdOO5UN7pTRDeBiAGHAE6F110EYJ1nnjiifB2htaTAAmQQBQTQB+Onhz9OXp19O1RTIKuB4YAJWZgOEZzKWeccQaO4cUxafv27evdu/fatWujmQZ9JwESIIGwI4B+G703+nD05OjP0auHnQs0WIAEGIspwEYJY5OqqqoQwYOocETwXHPNNWHsCU0nARIggSgg8J///Aed9tGjR9Fpp6SkRIHHdDFYBBiLGSyyLNdOAD0U4sTvvPPOzMxMlUr15ZdfkgwJkAAJkIAACaB/Ri+Nvho9Nvpt6ksBtlG4m8SF8nBvQSHaj2hxhPIkJCQgrAe/j4VoIm0iARIggSgmgJ4Z/TN6afTV6LGjmARdDyIBSswgwo3mok8//XQc2IsD1fbv34+O7KWXXopmGvSdBEiABARCAL0x+mT0zOif0UujrxaIYTQj8ggwFjPy2lRwHr377rv4xYyODLE+1157reDso0EkQAIkEAUE3n//fXTFx44dQ1d8/fXXR4HHdDGkBBiLGVLcrMxOAH0ZIsozMjImTJgwadKk2tpakiEBEiABEggZAfS66HvRA6MfRm9MfRky8lFeERfKo/wLEDr3EVeOoJ8///nPWKN5/PHHQ1cxayIBEiCBKCaA/ha9Lvpe9MDoh6OYBF0PNQFKzFATj+b6YmJicLQvjl7773//26tXrxdffDGaadB3EiABEggqAfSx6GnR36LXRd+LHjio1bFwEnAhwFhMfiU6h8CWLVsQFXTaaachKui6667rHCNYKwmQAAlEIoH33nsPHezvv/+ODnbEiBGR6CJ9EhwBxmIKrkmi1iD0eog9v+uuu+6+++57773XZDJFLQo6TgIkQAKBIoC+FD0q+lX0ruhjqS8DBZbltIMAF8rbAY1ZAkYAEegID+rRowdChR577LHjx48HrGgWRAIkQALRRAD9J3pR9KXoUdGvoneNJu/pqxAJcKFciK0ShTYhWgjLOtjq+Oijj95zzz1RSIAuB5wADmf59NNPv//++wan68iRI85/2v/tfPOss846++yzHf/1+Of//d//XXbZZZdeeilOrg642SyQBNpB4IUXXsC2Hry2FyvjUJntKIFZSKCDBNwXyikxO4iU2QNJQKvVQmjia4pecvjw4YEsmmVFAYFvvvnms88+g6y0XzhZOthOx8XFQWjisitO+7+7desW7HpZPgk4CGzduhXdJqYw0W0qlUqSIYHOIkCJ2VnkWa8fBNasWYOf49gDhB4T2yH9yMmk0UQAY6pdSjpk5eHDh4UAID4+Hlrz6quvHjJkiEKhwJSnEKyiDZFHAKvhEJfY2YPFH8RfRp6D9Ci8CFBihld7Ra+1f/zxB1Qmek+oTPSef/oTg4aj98vg7PmBAwcqKys//vhjyEpcYQFFJpNBayYnJ1911VUDBw7klzksWk3gRrKHFHgDRad5lJjR2e7h6jV/o4drywXa7s2bN2s0GojLL774wq+yL7nkkt69e2M5+5zmy/6P1v9rab7q6+vt//D4pyMBQjn9skcikUBu2rUm/nvxxRf7lZ2JSQAEuM7Dr4EwCVBiCrNdaFVrBBhp1BqdyP3syy+/hKysqqpChO5PP/3ki6N4f8lfm69+/frZ/wE16UvGdqeBxKypqTE0X/jHrl27/Crq5ptvHjVqFP7bvXt3vzIycXQSYLR6dLZ7uHhNiRkuLUU7XQlwv6QrkQj9G78oMI7iZH69Xt+6ixdddJFdRzo0JeYIW88S7E+bmprsWtPxX9xps9LY2FioTLvc7Nq1a5vpmSAKCfDMjShs9LBzmRIz7JqMBp8igO0d9gDNvLw8BGjizUCkExkEjh49Wl5eDmWJC9ERrTjVs2fPW2+99bbbboOsvOCCC1pJKZCPMK/pPM3Z+sI69KV9UhNyE7pTIC7QjM4lgDf0oN/Lz8+3B6Y7RvHOtYq1k4A7AUpMdya8E2YE8O4KbAOCFoHK5NnCYdZ4buaiNV9++WW1Wo13KLt9eOoGwhZTU1OhLJOSklpJJvyPtm3b9mbztX///lasxbq5Yw29lWT8KOIJrF69GvoSRxFBX2LfWMT7SwfDmgAlZlg3H40/RYBv4A33bwPEFpQl9KW3ib2YmBi8++76668fM2ZM5B0lje3wb7/99htvvLF9+/ZWmvLKK6/EmwBxnX/++a0k40eRRwCxIvgtjbUaiEuc4BZ5DtKjyCNAiRl5bRrVHr344ov4iT906FD0wtg4HNUswsf5V199FeJy48aNHk2WSqVQlrgwjRcWS+EevfD9JvbIb9q0CXITu+a95cL7AO1Ck19yb4gi6T5O5oK4xG8wLNSg3SPJNfoS2QQoMSO7faPUO3uA5rx589AjY+orSikI3u3vvvvOPm2J2ER3Y7FTZ/z48SNHjrzhhhvOPPNM9wQRfwc76KEy7XITwanu/uK1lhAcEydOxKHu7p/yTgQQwOYw9GaLFi2yh11GgEd0IaoIUGJGVXNHkbO1tbX43f/uu+9CZapUqijyPBxcxfZqiEtcZrPZ3V6sBUNcZmRkYK7O/dMovPPtt99CaOJ67bXXPG5Iv+OOO6A1IcejEE4Eu1xSUgJ9icgQ6Etsa4tgT+lapBKgxIzUlqVfNgLvv/8+hOaxY8fQR6OnJpROJ1BRUYFoy1deecWjJbfccgvE5Z133unxU97cvXs3zurCOds//vijO42UlBQIzczMTPePeCe8COC3MTqu008/HR3XtddeG17G01oScBCgxOSXIfIJvPTSS5gMwPv60F/jVdGR77AgPTQajU899RTkkbt1OJoHc5a4Bg8e7P4p77gQ+OqrryA0cWH3vTsc7LW3r56fd9557p/yjsAJ4GABiEudToflF4RACNxamkcCrROgxGydDz+NHALouHE9/PDD6LsxPRA5jgneExzjB3GJy33uDXrIviaekJAgeD+EZSDeb2QXmjt37nS3DMfZQGjOnTv3jDPOcP+UdwRIAIst+CX85JNP4pcwLgFaSJNIwF8C7hLzT/4WwfQkEBYE0GvjfRh1dXW9evVatWpVWNgcAUbiBHVs8IfWcdGXaWlp69ev37FjR3Z2NvVlOxoak5T3338/oloxMey+looJzscee2zYsGE4BakdhTNLiAmgR0K/hN4JfRT1ZYjhs7pQEuiCN6agPnftGUojWBcJBI/Af/7zH0xnYosuunKErwWvoigvGYGDmLlElIILByyIP/DAA4MGDYpyPoF1f8OGDZjUfOutt9yLnTp1KiQ+94u4kxHCnaqqKnRHODMB3dE111wjBJNoAwkEioC7kqTEDBRbliNoAmvXrsWyFIL/0LNfdtllgrY13IyDfLevjP/888/OtuNsnZycnNtvvz3cHAobe3E6N4QmNlS5WIyXA+EMr2nTpoWNJ1FgKA5Ahbj88MMPEbozYcKEKPCYLkYdAXeJyYXyqPsSRKfD6NNxoPHll1+Od1vn5ub+9ttv0ckh4F7jYB2sjD/yyCPO+rJbt24IMvvggw+oLwMO3LlAHFCP3054PxCOMXK+f+jQofvuu2/06NHYRxJUA1i4LwTQ26DPQc+D/ge9EPWlL9CYJjIIUGJGRjvSC58IQAkh+AnnDiIQauXKlT7lYSIvBLDvBCfmQNwgwtI5yZQpUyAuH3roIbz7zktW3g4kgYEDB+JYKMxl9u/f37lcvDEIS7H4zv/666+BrI9l+UMA/Qx6G/Q56HnQFv5kZVoSCHsCXCgP+yakA+0gUF1djUWrxsZGrJvjdTLtKCHKsyDqYMmSJS7aBZNqWBm/6aabohxOZ7mPieR/Nl/Y1O9sQ1JSEtbN09PTO8uw6KwX72pCJxMbG4tOBjuxohMCvY4qAu4L5ZSYUfUFoLMtCGDiB1Lpb3/7G8YArGGRji8E8J5D7AovKytzTozNJRCXWVlZvpTANEEloNfrof7dt5ZPmjQJ24D4lvOgwrcXvm/fPojLjz/+GGGXd911VwhqZBUkIAQC7hKTC+VCaBfa0DkE0Pvj6GO5XI4VRkzzeHwxdOdYJtRasfZ64403uujLBx98ECvj1JcCaTSFQoH95jgWx+W9A6tXr8a6+bJlywRiZ0SagT4EPQn6E/Qq6FuoLyOylemU7wQoMX1nxZSRSSAvLw9hUt9//z1CplasWBGZTgbCK+zgwQ4SzNA4CsMbIHEm1NKlSy+++OJA1MAyAkZApVJt27Zt1qxZziXiIMaZM2diOpPb3QIG2qkg9B7oQ9CToD9BrxKMKlgmCYQXAS6Uh1d70dogEsCQjOWtX375BevmmKsLYk3hVrTZbMY6uFqtdjYcg+gTTzwRbq5Enb3vvfceojPfeecdZ88x0/n000/jVKmowxEchzdt2oSu4+yzz0bXgQMWglMJSyUBoRNwXyinxBR6m9G+EBOAkEKAJnbpYrTo06dPiGsXYHXvvvsugi8/++wzh21SqRQzl3gVpACtpUkeCSxfvhxCE687d3waHx8PlYnXTnpMz5s+Eti7dy/EJQ5VQNglDljwMReTkUBEEnCXmFwoj8iGplPtJ4BxAock4xC7K6+8EtsjrFZr+8sK/5xQIZjQddaXSqUSU2LUl+HVtjgmE++Vuf766x1m19fX33PPPQ8//HB4OSIca9EzoH9AL4G+Aj0G9aVwmoaWCIcAJaZw2oKWCIgAjkpGQNUPP/yA4Krnn39eQJaFyhRIEMTzIZjvjz/+cNQ5ffp06EsMq6GygvUEjABeagWViUBM5xIxtXnbbbcFrI6oKQh9AnoG9A/oJdBXRI3fdJQE/CPAhXL/eDF1tBHAXmkshB05cgTr5tFz4iPODUXwJU5dcTQ3jvfD4vg//vGPaPsCRJ6/iAN57LHHnP3CiV0Ih8BrJyPP2YB7hJ9Y6BDOOeccdAhDhgwJePkskATCl4D7QjklZvi2Ji0PHYHS0lIMzDjCGuMKjiMJXcWdUdOzzz6L4EucS++o/KqrroK+xJE3nWEO6ww8ARxghEOmXIJA3nzzTRwREPjKIqVEo9EIcVlTU4Owy4yMjEhxi36QQMAIuEtMLpQHDC4LimACGFFwWA+Ou0tMTET4mrP8ijCv8Y47xO05O4hXKmPmhvoykhoay+V4szmWzp2duvXWWyGeIsnNQPmCxwFPPZ599ADoB6gvAwWW5UQ8AUrMiG9iOhgwAjhUGaFXCFJEGNZzzz0XsHIFU9Ds2bPz8/OdzVm8ePFLL73UrVs3wdhIQwJDoF+/flBLzhuAUC5m6XD0aWAqiJRS8KTjecdTj2cfPUCkuEU/SCAUBLhQHgrKrCPCCOh0OgzGP/30E9bNR44cGRnezZgxo6ioyOHLX/7yFyyOc+U0Mhq3FS+mTZvm8nspISHhf//7XytZouSjyspKPObnnXceHvPk5OQo8ZpukkC7CbgvlFNithsmM0Y7gXXr1iFAc8CAARiB+vbtG9Y4pk6dunLlSocLgwYNwuQljwUN6zb13fiXX34Z4RDO6U877TREasbExPheSCSl3LNnD8Tlzp07ETnA87kiqWXpS1AJuEtMLpQHFTgLj2QCGHtw8DJO8MFumIceeujXX38NU2/vvPNOZ305fPjw8vJy6sswbc12mI1XaR88eFAsFjvy/v777+eee24UHgqLpxjPMp5oPNd4uqkv2/F1YhYScBCgxOSXgQQ6RADHLyNIC4vmCNjCXuwOlRXyzMeOHYOgfPXVVx01IxQP+pLn14S8KTq5QplMhk0tgwcPdtiBP/Eap4aGhk62LITV4/nFU4xnGU80nusQ1syqSCAyCXChPDLblV6FnoBer8fiGrYFYN08NTU19Ab4WyPUAxbEMVXjyHjHHXdgzTRql0f9BRiR6fGTA681d7h2wQUX7N+/H/GIEemswymNRoOHFy/VxMOLF7hHtrP0jgSCRMB9oZwSM0ioWWyUEnjllVcQoHnFFVdgrMKb5QRL4fDhw5deeqnFYnFYiGg8xF8K1mAaFjICLirz4osvxhtEu3btGjIDQlnR559/DnEJBxF2iYiRUFbNukggwgi4S0wulEdYE9OdTiaAUQpHNOMIPUwQzpkz55dffulkgzxVf+jQIcxOOetLvCuS+tITqmi8t3Xr1uuuu87hOXaXDxw48Ntvv40wFng28YTiOcXTimeW+jLC2pfuCIEAJaYQWoE2RBoBHNSMcC68dhKhXcuXLxeUe5i26dGjh7NJOLZm1apVgjKSxnQuAReVWVtbi7P3v/nmm861KoC146nEs4knFM8pntYAlsyiSIAEHAQoMfllIIGgEMDhgtg9gJfyvf3221dffXVFRUVQqvGzULxyHWduO2e6//77hSaC/fSJyYNCwEVlfvHFFzfddNOXX34ZlMpCWCieRDyPeCrxbOIJxXMawspZFQlEFwHGYkZXe9PbTiGALdsI0IS2Q4Cmi8ILpT3YinT++ec714jX+SxZsiSUNrCuMCJw/PhxpVLpvPsnKSnptddew7H8YeSFw9Tdu3cj7BL/RdgldraFowu0mQSETICxmEJuHdoWsQQwnuEwZxy2h+kTqLrOOgjGRRnk5uZSX0bsdy4QjmHAwFZr57jMmpqa22+/HTOagSg+dGXgicNzh6cPzyCeROrL0KFnTdFNgAvl0d3+9D6EBHCkMwK/sMkAQWDFxcUhrNlWFbY1YBbTUWl2drbL68hDbA+rCwsCsbGxOCfVWWXinTfp6ekQamFhP4zEs4YnDs8dnj48g+FiNu0kgQggwIXyCGhEuhBmBD766CMs2H3//fdYN7/55ptDYH1GRgZed+moCIoBkXYhqJdVRAaBuro6yEqc/Opw58Ybb3znnXcE7h0CLvGg4fAEPGiYwhS4tTSPBMKdgPtCOSVmuLcp7Q9XAohpQ4AmXm6O8a9///7BcwOzlY888oijfLy55+uvvw5edSw5IgmYTCaoTIPB4PAOM4JPPvmkMJ3dtWsXxCWmWhF2OW7cOGEaSatIIMIIuEtMLpRHWBPTnbAhgJEP5wdh/RpvE8nJycH5KcEwHauczvoSb+4JoyXOYABhme0jgDdMqtVq53Def/7zn86vHm1fsQHPhecITxOeKTxZeL6oLwNOmAWSgO8EKDF9Z8WUJBB4Ajj8GSFiLtaE/wAAIABJREFUeB80wsWKiooCWwEOlL7nnnucy6yqqjrnnHMCWwtLixICcrl86dKlzs7i27tv3z7huI8nCM8RniY8U7BNOIbREhKITgKUmNHZ7vRaQAQuuugi7EjAcX0IbsPUy8aNGwNlHEIwnSdHCwoKnPdtBKoWlhM9BG655ZbFixc7/P3qq68EouTw1ODZwROE5whPE56p6GkUekoCgiXAWEzBNg0Ni0YC69evR4Bmnz59EKCJF513BMHYsWNff/11RwkzZsx45plnOlIg85KAncDEiRPXrl3roIF4x8cee6yz4OD14gi73Lt3L8zAd76zzGC9JEACjMXkd4AEBE0AYySOhsbu1yFDhuBcoZ9//rl95s6dO9dZX6JY6sv2kWQudwJYLscBk477+FH0xhtvuCcL9h08HXhG8KTgecFTQ30ZbOAsnwT8JcCFcn+JMT0JBJ0AjolGMNnRo0cRWLZs2TJ/68MLx523+g4bNgy71/0thOlJwBuBbt26QWXiyExHAiyX4z3m3tIH4z6eCzwdeEbwpOB5CUYVLJMESKCDBCgxOwiQ2UkgKAQuvPBC7F2orKzcvHnzwIED33rrLR+rwbEyziNu7969oTh9zMtkJOAjgWuuucZ568/+/ftDdqo5ngU8EXgu8HTgGcGT4qPNTEYCJBBiAozFDDFwVkcCfhPAkjfWIi+77DIEaF555ZWt57/11lsdejQuLg7/Hj58eOtZ+CkJtI8AAnydj0FYtGgRIjTaV5QvuT799FOEXeL1lQi7xHssfcnCNCRAAiEjwFjMkKFmRSQQMAIYTXGUNI76w5L3rFmzfvrpJ29FFxYWOs93YjGR+tIbK97vOAFMZCqVSkc58+bNw8xix4t1LwHfeXzz8f3HU4BngfrSHRHvkIAACXChXICNQpNIwAMBHCiNsLNjx44hBM3j3p3t27c7b+zFiZguh2J6KJS3SKADBE4//XSoTKlU6igDy+Vms7kDRXrIim87vvP45uP7j6fAQwreIgESECQBSkxBNguNIgFPBPC2ZUxMbtq06d1338WW3jfffNM5FfRlQ0OD/U7Pnj2xmOipDN4jgUASQOSGc1Amphhzc3MDVQG+4fie49uO7zy++fj+B6pklkMCJBACAozFDAFkVkECgSdQVlaGAE3s5kGA5oABA/A2v4cffthRzZo1aziFGXjoLNELAbykND8/3/EhzjBCTLCXtD7d3rlzJ8IuDxw4gF9KeDe6T3mYiARIoFMJuMdiUmJ2aoOwchLoGAEEX2IkHjlyJAZ1HOBiLwziEhKzYwUzNwn4R8B5nxkiJrdt2/anP7VnlcxiseC30+rVq/HbCcde+mcEU5MACXQeAXeJ2Z4uoPPsZ80kQAItCGAMRoCaXq936EsukfMr0ikEnI/KwhdyyZIl7TDj3//+N8Iuf//9d3yrqS/bAZBZSEBQBCgxBdUcNIYE/Cbw/PPP41XRjmxYWITK9LsUZiCBjhEYOnSo814cSMzPP//c9yIxDZ+UlKTVaquqqrC/B6e7+56XKUmABIRJgAvlwmwXWkUCPhHAciSOJWpqarKn5hK5T9SYKDgEvvvuOwhNHMNuLx6vMn/xxRfbrAovC0Cwx8GDB/HrKC0trc30TEACJCBMAlwoF2a70CoSaCcBjMoOfckl8nZCZLYAEcCLdpyXy1966SVsSmul7Pr6+gceeAC/kXDgJY5Vp75shRU/IoFwJMCF8nBsNdpMAjYC2BWBhUUHCy6R82vR6QSmTJkyatQohxlYLv/tt988WvWvf/0LYZfHjx9H2CWOVfeYhjdJgATCmgAlZlg3H42PXgI1NTU8aD16m1/AnjtPZH788cfu+342bNiQmJj43nvvbdmyBft7unbtKmBvaBoJkED7CTAWs/3smJMEOpHAtGnTnnvuObsBWCLfunUrd/l0YnOwamcCDz74ICYp7XfOOeccRAxfccUV+BO/ixB2WVtbixn3MWPGEBoJkEAkEWAsZiS1Jn2JXgKfffbZqlWrHP7PnTuX+jJ6vw3C8xwTmTKZzG7XkSNHMJH5448/3n///SNGjLj22mtxrDr1pfAajRaRQOAJcKE88ExZIgkEm8DKlSsdu3zwap/JkycHu0aWTwK+E7j44oudl8vVanWPHj0ww4GwS0xw+l4OU5IACYQ1AS6Uh3Xz0fhoJIDjBgcOHGi1Wu3OFxcX33fffdEIgj4Lm8BNN92Ed4vbbezTpw9WyWNjY4VtMq0jARJoPwEulLefHXOSgEAIYIncoS/79evHKUyBtAvNcCHgPJG5d+9e930/JEYCJBDZBLhQHtntS+8ijcC+ffucozBxRswZZ5wRaU7Sn4gggMjLGTNmOFzBMew///xzRHhGJ0iABHwiQInpEyYmIgGBEIC+bGhosBuDxUdOYQqkXWiGRwKYyLzooovsH5lMJl9e9uOxHN4kARIIRwKUmOHYarQ5SglgtwQ2+jicxxTmWWedFaUs6HY4EMAunwkTJjgsxft+wsFq2kgCJBAYApSYgeHIUkggBAQwhfnTTz/ZK+rduzenMEPAnFV0kAAkpmMTwI4dO0pLSztYILOTAAmECwFKzHBpKdoZ7QS+/PJLlynMc889N9qh0H/BE8Ch65zIFHwr0UASCAoBSsygYGWhJBBwApjC/OGHH+zF4qB1TmEGnDALDBIBZ4mJY4wcJxkFqToWSwIkIBAClJgCaQiaQQKtEfjmm29cpjDPP//81jLwMxIQDIHrr78eZ2Q6zGFEpmBahoaQQHAJUGIGly9LJ4GAEMAU5rfffmsvqnv37pzCDAhVFhIyAs4TmQjHRFBmyKpmRSRAAp1FgBKzs8izXhLwg8Bbb73lSI2N5BdeeKEfmZmUBDqbQEZGRmJiosMKTmR2doOwfhIIBQFKzFBQZh0k0BECWq0WL9+zl/CnP/0Jo3VHSmNeEugUAs4TmTggE8dkdooZrJQESCBkBCgxQ4aaFZFAOwls3LjRkXPUqFE4rqidBTEbCXQeAUjMP//5z/b68ZofTmR2XlOwZhIIEQFKzBCBZjUk0D4CTU1NLhKzfeUwFwl0LoFu3bo5T2Q6f6s71zDWTgIkECQClJhBAstiSSAwBDAS46U+9rLwLh/MYgamXJZCAiEnAIl5+umn26v95JNPtm7dGnITWCEJkEDoCFBiho41ayKBdhBwmcLEdvJ2FMIsJCAEAn379uVEphAagjaQQGgIUGKGhjNrIYH2EMBZ6857yTmF2R6IzCMkAi4S848//hCSdbSFBEggkAQoMQNJk2WRQGAJQF863uiDs9YpMQOLl6WFnsB1113nOIb9wIEDjMgMfROwRhIIGQFKzJChZkUk4DcBl1VybJjwuwhmIAGBERgxYoTDIkpMgTUOzSGBQBKgxAwkTZZFAgEkgF0+3EseQJ4sSiAElEqlwxJ8w+vr6wViGM0gARIILAFKzMDyZGkkEDACGH1xYpG9uIsvvpir5AEjy4I6lUBS82U34bvvvuNEZqe2BisngSASoMQMIlwWTQIdIeAyhRkXF9eR0piXBIRDwGUiUziG0RISIIEAEuhy/PhxFNelSxd7ofY/A1gBiyIBEmgHAbwx8qqrrnJkfOONN2699dZ2lMMsJBAoArW1tR999NE333xz2mmn9ezZc+jQoV27dm1f4Zs3b77xxhvtec8888x9+/Zdcskl7SuKuUiABARCwF1JxgjEMppBAiTgTMB5CrNXr15cJefXoxMJbNq0aenSpdCFLjaMHz9+9uzZiYmJ/tp2ww034ITXQ4cOIePRo0fxbZ8+fbq/hTA9CZCAwAlwoVzgDUTzopTAxx9/7PAc+jImhr8Go/Sb0Oluz5w5E8cMuetLGLZu3TpEVS5ZsqQdRjqvlb/33nvtKIFZSIAEBE6AElPgDUTzopEA5nWcJSZWJKORAn0WAIExY8YsW7asdUMeeuihWbNmtZ7G/dORI0c6bm7btu333393T8M7JEACYU2AEjOsm4/GRyYB6MvDhw87fBs8eHBk+kmvhE3gnnvuQRCwLzY+/fTTTzzxhC8pHWkQW3zGGWfY//z222/5vnK/6DExCYQFAUrMsGgmGhldBJynMP/2t7/93//9X3T5T28FQKCoqOjFF1/03ZD58+d7XEz3VkJsbKzzWvkHH3zgLSXvkwAJhCkBSswwbTiaHckEnCUmpzAjuaWF6humFefMmeOvdXPnzvUry+jRox3psVbuV14mJgESED4BSkzhtxEtjDoCOLHI4fPVV18ddf7T4c4mgP3jjY2N/lqB7+0LL7zge67bbrvNkRgS02q1+p6XKUmABIRPgBJT+G1EC6OLgMFgOHDggMNnzmJGV/MLwNvffvtt+fLl7TPk+eef9z0j3lk1aNAge3roS4Zj+o6OKUkgLAhQYoZFM9HIKCLgvEoul8txKGYUOU9XBUDg9ddfb2hoaJ8hH3744aeffup7XucXClBi+s6NKUkgLAhQYoZFM9HIKCLgvEo+bNiwKPKcrgqDQGVlZUcMwTntvmfHGeyOxDwd03duTEkCYUGAEjMsmolGRhGBTz75xOHtkCFDoshzuioMAtXV1R0xxK+NO5ind9S1ffv2n3/+uSNVMy8JkICgCFBiCqo5aEy0E0AUpvMsJgMxo/0LEXL/cSDrl19+2ZFqd+7c6Xv2uLg45zO5uFbuOzqmJAHhE6DEFH4b0cIoIoApzOPHj9sdxkucL7vssihynq4KgEBtbW0Hrfj666/92hvet29fR406na6DtTM7CZCAcAhQYgqnLWhJ9BLA7op333134cKFixYtclCQSqXvvPMOlw6j92vRGZ7/8MMPHa/Wr0KcJeYXX3zR8dpZAgmQgEAIxAjEDppBAtFJAPM9kJVLlizBe8ldCOzYsQPvccZL9m688cZx48bdcsst5557bnRSotchI+DXBKQ3q9y/zN5S4j4lZitw+BEJhDUBzmKGdfPR+PAmgL23ffr0wcudWxmScUjhxo0bJ0yYgElNTHOGt8O0XvAETj/99I7bGBPjx+QFJWbHgbMEEhAmAUpMYbYLrYp8ApMmTbrpppt831qBt63k5eVdcskl5eXlkU+HHnYSAYlE0vGa4+PjfS/EeVN5U1OT83sHfC+EKUmABARIgBJTgI1CkyKfQFZW1po1a7z5efbZZ19++eWYs3Q/tOirr75KT0+/88472304trdKeZ8EQKBHjx4d5NC1a9dzzjnH90IgavGaH0f6/fv3+56XKUmABIRMgBJTyK1D2yKTwFNPPeXxBX0DBgx44IEHcG4L5OPevXvnzZuHIwaNRuOsWbNcojBfffXVgQMH4qPIBESvOo8AJOb555/fkfr79+/vb3aulftLjOlJICwIUGKGRTPRyMghgLfzzZkzx92ff/3rX3g7+dNPP33dddc5f4pgzcLCwv/+979///vfne/v27cvKSnp5Zdfdi+Kd0igIwTc5879Kk2hUPiVHomdJSZnMf2lx/QkIFgClJiCbRoaFoEEvvvuu7vvvtvFMUwavfnmm/fff38rDnfr1u25557DtKXzYezY/IttQIsXL24lIz8iAX8JOL/U0d+8SJ+SkuJvLs5i+kuM6UkgLAhQYoZFM9HICCHw+OOP//rrr87O4NUmWq0WBxL54iFmNLF0/vDDD3fp0sWRHuvpTz75pC/ZmYYEfCEwZswYX5J5TCOTyYYPH+7xo1ZuOu/44dGYrYDiRyQQXgQoMcOrvWhtGBPAe1Oef/55FwcgEK+88krfvTrttNMwbbllyxbMazpyzZ07lyrTd4ZM2TqBP//5z3fddVfrabx9OmXKFG8ftXLfeRYTZyz89NNPrSTmRyRAAuFCgBIzXFqKdoY9gYceeuj33393duPWW291ibD00UlMFH344YfYuutI/6c/8Vn2ER6TtU0A287aTuSWAl/IGTNmuN1u+wZ+L1144YWOdAzHbBsZU5BAOBDgsBQOrUQbw58A5mbWr1/v7Ade24PZx3Z79pe//KWqqgqnw0BcvvDCCx63ELW7cGaMcgJXXXUVzjHwFwKO2YqLi/M3lz2980QmN7G1jyFzkYDQCFBiCq1FaE9kEsApmMePH3f2DUvkV199dUe8TUxMxIt/NmzY4L6FqCPFMi8JgADOMXDeW9YmE6ytt29K3l7yiBEjHFX8+9//5gHsbQJnAhIQPoEu9mHPsXvAZRQUvgO0kASETwCPFeLb6urqHKZi6nH37t3OuxyE7wUtjDYCOCoLL6DyRe1hF/k777zTwWgNvHHAsRlu6tSp7oHL0caf/pJAeBFwV5KRPot5oDA5tkuX2BHFtZ5aamde0un4dFSpxdOnvBcsAlbTxsLpacl9e8TH4rqgV19les4yrckarPo6vVycpu6sL2HPHXfcQX3Z6e1CA1ongGCMzZs3Dx06tPVk48eP12g0HdSXqML5+K0VK1Z8+umnrdfLTztEoEmfJ4ckiE1f56nnbdJO74FP4ydXdqiS6MrcZNY+m5Op7NvrAtvIFt+jb3La9MINRk98owVMpEvMaGnH8PGzyVx+X3LfW3KKN+iNh614d5zYajJuLS+cOSJpWI7GHD6O+GOp+7siITH9KYBpSaBzCOAQourq6vz8fI/vhMSnK1euLC0tjYmJ6bh9M2fOlEqljnKWLl3a8TJZAgmEiMBhbd5w+Yj7Cku3Gk1WMYY262GjfkNxTlpS0sRSU1OIrBBaNZSYQmuRCLfH9Gym6lmDVZKoWqGrq2/E3F79kcaDmwvSeostOwpVsyJwQvmXX35x2eiDvRTYSx7hLU33IohAbm4u3hoAKTl9+vTbbrstPT199uzZiAM+ePDg5MmTA+io80TmSy+9pNPpAlg4iyKBoBEwl87MXLjNIu6TVrD5YOORegxtjfV1uuWqxDircW3W5GdNQata0AUH4KenoP2jcYIi0KQvfkZriZGkLdWsutcxXSGWpWSr19QlDS80blSXHc5QnTrwUVDWt9OYTZs2HT161DnzuHHj2lkWs5FAJxEQi8VYEMcV1PrvueceqEzH6evY95OcnBzUGlk4CQSAwO6Sgg1mUZwif0NZdp+T5Ymlimmr1JY9SfP0utJy04xsWQBqCrMiOIt5qsG0MxMQe+Lt6jVLezKpxbA2L/OGJMRbdDk9NjahV1Lq5IXrfYy3sOftm2CL1YhP6D8ic16pwS0S1LJmFCJIPVwIKj10wgrtrF5I0Heewfs3zlx8gy0QNXP9yVCQDZm2v5WFzr+nzM+OsN0cV+ocL2KYn4TCE2aedNlcYjMoYbKmxWy/VTvTZkOXczLLcb/JsDDRg8knb8VmbhCJDugMDRJJ93TV+FPLYXb7xYOVyVCW1jrTSQe9+xVmn2Cd0cXim2++Ocx8oLkkECoCjz76qKOq1157DSdzhapm1uOVgHW9bezwdsUOWmg8mdW8rSRn3AhbnP3pXTDE9VWMmv6Upu04++axyflC3l6DRk1eXG5sOGVV86gXm/x0yxnB2uIR8basSU84rLBnsZTc4snqS3P0joHMPiamtVw9w1g2yJYx9oZiW+jWoWLbGOntih1VYhaZt9fUxUmkI1Uqh748abU8RSmLEVkPmaJzrZyzmKe+vrKU6blxjfa/TVuLSz+0SIaqsoadEEPxiuZfIE2m0kkjVGtN1jiZIiUztbvYeqimoqokr1KtnlamXZ7qKp1OFY9/mcunKjNXGm15h6UmxFlNem3pYm35Rl1ZVZFzTtN+2yPpXLvIaixfVu7yALUoO/R/7C7MW+P0qMckKCbl5p7YM23Rry3WHhInjs9K7SluNi2276UiUZ/sLXXZni21Whvhc4w4vp3H6nkuVQh38cpHZzP69evnfARg6xbifHVsFdLr9fv27fvqq6/wu+Tiiy/GKUWXXgqavEggAglkZGQ8/fTTO3bssPu2bNmydrz0PAK5dKpLYvmo7Lkn5uCsBzTF6w3Wnsqs8QqJ3aoERYLtH1bjs+nKmYiol8iHKTPHJIgtJl2VtniORl2eq6nMP5nauyfdFRkj+8Y2f95o3qPfqimZpymrLqp5KwsqzctlKZ+fr3WbprElbjKZMJDGSJVTVCeqNmuL1+o9pnUu3Lwmr2CH05SLJCljdq7CrkqthtJlGpNInjYjTW4f2WJkSXEi6b1ldfd6MfCIxVZWnNjul5dEkXsbx6k4H1Rk/zNy/ru/QIHvgVhZZPLkkyE3EV9ccaq63vVT3YO2x0k+W+fyQd2KVNtD1T1tlbHR8VHj9nwlZuBipKpyt4Kc8tetTpPEiMR9VGUOYxr3FIy0lSebUnGquOONZeNxU6x85uCp3EfUadBecOTrE/e22C2cW+Nq+qm/64pSbM5nvHay7PIM29/DC5zKPV63XGm7OVbtZMDxmkcSYZV0xpYThdWtSkUiqarimKP0ulVjJKI4iQRWxWWUnbpvT7AnfzAySFQa79a1/MQORzQgt8a1KF9LEGa6xsZGl52206ZNa9NUxPFgufDyyy/32PE0NDS0WQITkED4Enj11Vedv/nl5eXh64twLT+my+0DzOK0Uue+/6S9x7ZkdcennvrwtzJs49PQFuOILduufIVtkJKrXqs75fX3W7IH2rSY/EGdp2pOJvQ0NjVuz01E1hh57vYTyZpHPbFi6akRrFGfC6kn6WYbRhMX7GlBu7HMZmhc2qnxXZ8tx4jfO1vnGGXs9Y5xkgD1Faqe8FtiG6xTipw8aS77++ah0JNmaFH1qT/qK+61aQnZtC2tue8lc9jddjy2DssjfaE8xv7TodEamP1cxpIV+L0kVs4pUPWxPTb2SzwwN/9euajJrF6r8f4LCXk1liZJ6ryCNHyDT+SUZ8/PUvSRSw4ZjKcsrDN9jZ89YlnP5l+GgrysVfkLN1oTp2TZnrcOX+bKnLRZ5ZYYedaiHJvoj6ALU5h//PGHs0NtxpZhb9All1yCF/9g5tKdBD7C8YHu93mHBCKGAIKVlUqlw53ly5dHjGtCckQsau5srVanGbsO2KdfXaJvEElG5xWMdVrM66bMn58pjREZ15Vo/axHPECZbJOO9ZZ6b2aZSuYXGuPSsiacmFJska4WO7sxMyKT+bMyZliapz4kU81ID8Toa9EvTseaJ+ak8ufZpnKi8Ip0idktQYqGtRpr3AMe29Hah3W63VaROFGZ4hq2mzg8GU+RdbuuxpuWPZFXnjzM9tCcugbn64x7ajTN86n2C9P7tagF54EI9TvZZCicX2Lqnpk/K0nkZ6/hSh0HiT0xIvGWQr0oUbW6oqh5TjeSLpdVcrg2ZMiQVhzEK38wvv7222/e0mCd3dtHvE8CEUPgvvvuc/jy7rvv8pWSgW/ZmISEhObR0VDTwV682TajVo8wKXHyyOaFPqdLPEyZjHoO1+j2+unEXn0N5my6KZW2RTUPl2V9Xv5WkWJOXnq8B5lsNe7BDgnxpXLvi+xuZdYW5y0ziEfm5g4Xd5SJRV84Lkk5T2vpmVZUqc6wTQlH4xVZU0buLRinHJUiKV1vKZ2j6ivOVw2XS+NEVou5rtZkNO4xbNX6d5BAbXPErjhB1tO1JnEPGX70mA+bTLZHwvVT29+I9sV3FsJR6ulT53so5DBWB2Synm2lxOcWk/GARIxmjImNl0hty9bBv8xrEaoiTl2em9rNUNKR6hDYOnGEap1JNEC1ak2RaoBQJXUHfPzoo4+cc+Msa/x08FYeXtnnfGgLkuEwwkmTJg0cOPCyyy7r379/fX19oKYcvNnA+yQgBAI4FwkvFsIbg+zGFBcX4wWVQjAsgmyQpo5OFldpTWumqy4tyhufLO8mFjVYzIdMe/YbjTsrdN6X5DxAaKqrw8xIjFTW3W2aIE6agDGx1mT+WiQa4CGr45bVpCmcU2cfBqxmo7ZSW98no2BZcZrHIdWqz19Qau6drZ6WKFrioVjTXtse3IR+fdscck9mtmgWFGqaFPmLVLK66Se2ZXgo2IdbZs30kenFO0WyMQXqFdkKj/b7UEwEJIl0iSmSZCwprtilKt1bnndLeZ7HFvOdgX14jxEjSsP1wpEetptWryvyDc0/sxDe4Z7XpSxM70PI9pZ7mvp3rRbh1X2fddwUS/okp0/NzZ+hxJRqsC6LJm+RxjogPx8hJk2t7Gdvu37jU5k2fTkwu6KqQOnWL7WdPxxS4C2RzmZec8013qw2Go1YHHd8esYZZzz22GMzZsyIizv1uwHbfbxl530SiDAC//jHPxwSE/veVq9ejZ9bEeZj57ojm1JUUDUqZ6OxdOaI0pkdtMVabxvhYj3taokV22QjNnTaZllaq6ZWW/yU4+QWBETKlf1lEi85TM/mFe+VZryUp4wTeRqHLIbttknMxP7y1mp0+sy6oyBvnUk2ZVU2FopOvevXx9zOycwlUzOhL+VTyrQrWt8B3I7CwyxL8JSIYED0zFBvT8xcqy7fajDhsO8mvLFQIuspl/dPShRrp08q9mObdpzYJoSarLYdYi7zhVCf0IXYEO3lecCGMq95W6KyGG0SU3xpX1+m92VjCwrGN8+KWetNBo16ZXnJLJ2uTluzxLbNKdCXraMwLMtT18pUb2XZVva9RQX4UnGTQf2S3hojy1qSH6n6EoeuHzp0yBnGoEGDPLJpamrCJM2xY8fsn2Km86233uKauEdWvBklBPB6Ahzv9fbbb9v9VavVlJgBbnqxPOutmuQNJeqNOmMtRkdR7DkJ0p6yvni5bT9r2cTppWbfK2we+xoarR5m/5q1pUgcG9fGoIStqHu0Jw6PtB42GTYWZs1cOHmDxlSla94/euKKxdBzuDRviVY0rCDftjXW09VUozPYFGZSopcEzpkw9SMylcwrNkjS1B0PmjygLqmyiLpl5C+Jdn0JxlEgMeFlnDx1Wn7qNLcv4s6aNr7yLjm6yxC7YrDFSopELSPirDgeAXqruwwL8Z6vVvLan7/mH3q4jLts0/uJib48GSJxb2XamJOBKuNVqv7psonlxrUl2kXoarE4AAAgAElEQVSK1IC3LTqI2pK8Zwzi0avyAhA0Ke47Nju7SZ4ZDDHsuQ1Cfdf9JcveVOObb75ZU1PjsA/HAXpLGWofWB8JdB4BaEqHxNRqtZjUxOp555kTkTVLEsdk43+uvjVptX6NIDEJMpxPZ7aYaiFLpS1Ks5hMuIfQrx6ulbTyt7ibTHFvQX512ag1hpLVkJintn9hqNQuyi+1yHMXZXmNOtqt1eHXfU+lsk8rlZz8SCy2bEBYp1WxKD+jpe0+ZHZLEiMf9WC2MiE1UqdO3Bxu7Uakb/dpzXf/P0PcMeIFrUZtlUsMpxWnfyFwRaJQJnl7LLslK/vZ8lZUtsy7e2FyPM5vV5WfOGDWqEPQdIw0ebCv0/vObkjk8gQY0FBvOVGa/z62kiPGql2wUGNV5CxQdfwxxFEUGQsKChapbMdSROjlskoOL70JRxzL4mCgUqkQfBmhSOgWCfhBYMyYMQqFwpEBE5l+ZGbSkBLATlboPauu0vWQSstWrc42/5Ks8EXttbBZHC+xhQZZGpqPlnRcppK8lUbp+Pwcp6lNF1+NGzWGJpF0mNKXI0rETTUF8xHWmVU4oz3Drivmnqm5iwoQrubD9Klr1sj7mxLTrzaVZU5NlUBpLc0p2XvqO2/Zlm87hDxGrrrPdTOdU+nyzKlK5NUvnV6482Req7FkfhGm86VjMhFQYrt2l6vxabdRqaf6Vd8ttBoRu217mOV+HdPgawWH1MXrTPJ7822hKh2/GoyataWlazUB2evfcXOCUcLnn3/uXGz37t3j4+PdK8L+cZym7riPgzPd0/AOCUQngQkTJjgch8R0/9kWnVgE6LVikgqjmGVjfg5epei4DmnyFpRbmsSKqVlKb/Mv3pxp0Fdste1SRzyl00SEVfdssT4mNW9+mlcNZ9WXlBowUzNqrE9HBVkri21hnQvyArOiVqstxdC2Xu9EwZuHkX/f3zaPfCKteyidUFyy1Zi5pnzyoL6lo5XYgld/QKfdajA3SZWLSvKHtjYjJ723pKRamblGk6OQlSiS5BK83UdnMFvF/bJKFqVKDmsLF5RqKtUGqxjnTZ5QnK1bgxPDPixZ+ITtAK/GxnrzTk1ZldEqlmXMn67w3rDOu/aQ0bq7+eVeu8ry5pxaqLXYjp9wuxosFmlGccdDVewFw9+p07VNifmGVJ9iAtzMEf6Nb775xtlIb1OYBoMBJ7TbUyIK86qrrhK+a7SQBEJDAGvlBQUFBw8eRHU4z3nt2rX//Oc/Q1M1a/GPQJ/soqW6UfeVl4yT61JSlb3jrYeNWN8zHhbLxhaVPNj2BCHGpoWz6uzC0Wox1VRr9Aes4gHZ+dNa5LVYrImP5Gf19GidRb+yoAyvBdqLpfn4uqq8nK1Oycw628Bm0RXNy9EqsnLHnFhmt1oskpSi/LFeJavHmrzdtOqLVRPLrT2ztoxRBHHfrbfqBXbfuxIRmKGCMUeatlqnG15QsLZcW6nW4qRZqSxpdHbetJys4W2uHp/Mu6Zcu0urQd6eiRn3Ts+Zk2HTWIdMuvVqnTVBOSN/1TxfV4/NW4vz7I8Q9rl3lyWNzc64L0c1tFVLXHbt2cnuLS/EM9nGhTPn8wIQqtJGLZHzMbb7ODvjTWL+/PPPjmQ4mShy/KcnJNBhAmeeeSZ2wi1YsMBeEiYy58+fz7cPdJhrUArAHmpd/5KCpSWa6vISvFtekiBPzMgdn/P/7J0NfFPV+cfLVmY6UVrF2W6olMGkDCZloLSCjiAqRXwpQweM+ceiUwtOpbINKk5XcMOiUyg6pDrBVidSXxhFRYoKtkywZb4Qp86wgWsVHFXRRu3G/5cGQpo0bZrmtrm533z2cfTec895nu/JPeeXc55zTt609Ba2YQk0YVdF8V2HV5T3SEztlznl5py8G5v6R99PH23JHGSrzDhX9erFizc0zRM2OsrvcpQHlrKvqvSOquRZWV6JqXHS3NtygoZ1BubAlZAJdNPvQiXWCe+eRzx/hvw4CSEAgaAEtEXR5s2bvbfnzJnT4gCMZsmzs7M9yXRAMwFnQYFyw5IE/vWvf2mJ8+eff+7x/u67777uuo5usWNJkFZwuq7o3NSZm9MLaypnBwv9XDs16cJS26yNtfccWUJkBTSd4GOgkiQWsxOwU4RFCfiNYups8RZB+Cbzm1tvMT0XIWApAieffLLvvuv8BrNU7eOsqQkgMU1dfRgf1QRClJi+5/28/PLLnN8T1ZWKcV1B4Morr/QW+8orrzz55JNdYQVlQgAC7SOAxGwfL1JDIHQCfofxBBvFHDFixHHHHefJVnuw//GPfwy9CFJCwAoEtI3XhRde6PX0oYcesoLX+AgBsxNAYpq9BrE/eglolyJf44JJzK9//evjx4/3przhhhtWr14dvV5hGQS6gsBVV13lLVajmIHnGnSFUZQJAQi0RgCJ2Rod7kGgIwROOqnZcRb/+Mc/guWm48h79uzpuasld5deeqnW/ezduzdYeq5DwGoE9DPs9NNP93q9fPlyqxHA3xAIJOc+13CwIfhaH2UxoWT/wYOs9QkBZgSSsKI8AhDJAgItErj99tvnzp3re2v37t1+Q5veu88///y5557ru6VDfHz80KFDzzzzzGOPPdaTbNy4cWeccUaLZXERAjFP4IEHHtDZVx439ZNMb9MxxxwT817jIATMQiBwRTkS0yx1h53mI/Dcc8+dd955vnbr8PFJkyYF8+QPf/iDZsmD3dV17Qh46623tpKAWxCIbQJ9+vT55z//6fHxjjvuyMvLi21/8Q4CJiIQKDGZKDdR9WGqyQicffbZfntEV1VVteLD9ddf/+yzz7Zyuk9dHWeStcKPW7FP4Oc//7nXyQcffDD2HcZDCJiZABLTzLWH7dFNQAeTjB492tfGF1988YsvvmjFas2Vb9u2bc2aNcOHDw9M9sEHHwRe5AoErEPgF7/4hV4rj787d+7Um2Id3/EUAqYjwES56aoMg81E4N5777322mt9LVaA5q9+9atQfPjPf/6zYcMGh8PhTXzKKadMnz49lGdJA4FYJaDBfh3w4/FOP8k08B+rnuIXBMxFIHCiHIlprhrEWpMR0Pnj2lldYtFrd69evbZu3frd737XZJ5gLgSMIfDCCy+0N2PfyYHq6ur09GAnVrc3Y9JDAALhE0Bihs+OJyEQHoElS5b4Hamscc2ioqLwcuMpCMQYgVmzZi1dujRspxSded9994X9OA9CAAKRIoDEjBRJ8oFAqAT++9//Dhw48O233/Z9QCthtR421CxIB4HYJaAhyTAGMr08dHLBvn37EhMTY5cQnkHAHAQCJSbLfcxRc1hpXgLqAh9//HG/peWFhYUzZswwr1NYDoFIEXjttdc6kpV+wnHmakcA8iwEjCNALKZxbMkZAkcIaFHC+eef70dEJy8vWLBASxYgBQFrEnj//fe9hxF885vf9D2/p11ANm3a1K70JIYABCJOIHAUE4kZcchkCIGWCRQXF7c4cqnFCr/85S8vu+yylh/jKgRil8D69euzsrI8/mlH2O3bt8eur3gGgRgnECgxmSiP8SrHveghoLPv1q5dqxXlfibV1NT85Cc/sdlsgwYN0toFdboa2mnRbK1M9x5t0mICLkLAXARef/11r8FpaWnmMh5rIQCB1gnEt36buxCAQAQJXHDBBdov2qM1/bLVluxvNn2WL1/uuSUxeuqpp+qkcv3Z2NioBUN79+695JJLysrKImgSWUGgCwn4BmIiMbuwIigaAkYQQGIaQZU8IRCUwAknnPD0008rdGzOnDmtTwtqnaw+fhm98sorQbPmBgTMRsB3FHPAgAFmMx97IQCB1ggQi9kaHe5BwFACGsK5+uqrpRq1Kjb0gnRS+Yknnhh6elJCIGoJeIO3ZKEG+BnIjNqawjAItEkgMBaTUcw2oZEAAkYR+MEPflBZWancV65c+eSTT0pr1tbW/u9//2uxPA1/fu973+vfv//nn3/eYgIuQsBcBHbs2OFrMPrSXNWHtRBokwASs01EJICA4QR+1vTxFKO9jbzHLuvgEwVuHn/88d6NXQw3hQIg0FkEfCXmqFGjOqtYyoEABDqJACvKOwk0xUAgRAIXXXSRN6WWlp922mnoyxDRkcxcBLZu3eo1GIlprrrDWgiEQgCJGQol0kCg8wiMGzfOW9hLL73EtHjnoaekziXw8ssvews866yzOrdwSoMABAwnwHIfwxFTAATaS6Bfv37/+Mc/PE8988wz5513XntzID0EOp+AVq1pXy19tBOC9x/690fNP59++qmfbTrXR+n13863mRIhAIFIEWC5T6RIkg8EDCQwfvz4e+65x1OABjKRmAayJusAAlKKUoEHDhxo8b+BFz0CUlLyyy+/DMgspAtnnnkm+jIkUiSCgKkIsNzHVNWFsdYgMHbsWK/E3Lx5szWcxksDCXz44YevvvqqVKP389lnn/n+Gfjvdm2k1UHTJTE7mAOPQwACUUiAifIorBRMsjqBjz/+ODEx0Uth165dp5xyitWh4H+HCdx9993XX399h7OJTAZHHXXUcccdp+95UlLS6tWrv/3tb0cmX3KBAAS6iEDgRDkSs4uqgmIh0CoBTY4/99xzniSrVq366U9/2mpybkIgJAJOp3PKlCm+S7lDeiy0ROpgpBolGT3/9f2HR0r6/Te0XEkFAQiYg0CgxGSi3Bw1h5VWI2C3270SU3PlSEyrfQEM8jc1NbWqqur222+fO3du60X06NGjZ8DnmKaPbvl+JBw9mtJ36L31zLkLAQhYgQCjmFaoZXw0HwGd+uMNUNOpJzpbz3w+YHEUE9C259rt3/eIcBl7+umnL1y4cMyYMVFsOKZBAAJRSiBwFJN9MaO0qjDL4gQyMzNPPvlkDwSHw6G1GhYHgvuRJTBkyJDXXntt3rx5vtnqCNNzzjnnlltuiWxZ5AYBCFiTABLTmvWO1yYgcPbZZ3utZF25CSrMhCYWFBS88MILffv29bX9tttu+9GPfqRxdBM6hMkQgEAUEUBiRlFlYAoEfAmMHDnS++eTTz4JHAgYQUC/ZN566y2/leYvvviivn6/+93vjCiRPCEAAYsQIBbTIhWNm+YjoMW/3//+9xsaGjymV1RUjB492nxuYLFJCDz99NNXXXXVBx984GuvjjPVFq06bsokTmAmBCDQZQSIxewy9BQMgfYS0OLfiRMnep967LHH2psD6SEQOoELL7zwjTfeuPLKK30fWb9+/WmnnVZUVBR6PqSEAAQg4CHARDnfBAhELwE/iVlXVxe9tmKZ+Qn06tVr+fLlK1eu1M5EXm8+//zzmTNn6quoE4DM7yIeQAACnUcAidl5rCkJAu0lcPHFFw8aNMjz1H/+8x8GMtsLkPRhEJg2bVpNTc3kyZN9ny0rK9Ow+po1a8LIkEcgAAFrEkBiWrPe8do0BH784x97bUVimqbaTG7od7/73dLS0iVLlnzta0f6iH379unbqHhNkzuH+RCAQCcRQGJ2EmiKgUB4BHznyl9++eUNGzaElw9PQaC9BDQ/vm3btqysLN8H77///lNOOUVfxfbmRnoIQMBqBJCYVqtx/DUZAU2Ua7rcazQDmSarP5ObO3To0HXr1mn7TF8//vWvf2lLo/Hjx+/atcvk/mE+BCBgIAEkpoFwyRoCESHgt+hn9+7dEcmWTCAQIgEdAqQ9s7wnmnqeKi8v79+//x//+McQMyEZBCBgNQJITKvVOP6aj4AkplZaeOz+5JNPVq9ebT4fsNjkBLQn68aNG2+66SZfPxobG6+++urs7Ox33nnH5P5hPgQgEHkCSMzIMyVHCESWQEJCAhtkRhYpuYVB4Kijjlq0aNETTzyRnp7u+7jnyp/+9Kcw8uQRCEAghgkgMWO4cnEtdgj4Ssy//vWv2hA7dnzDE1MRUGSwjjW/8cYbfa3+7LPPpk+fPmXKlJ07d5rKG4yFAAQMJIDENBAuWUMgUgRGjBhxzjnneHNj0U+kwJJPGASOPfbYxYsXr127dtiwYb6PP/LII6NGjdKS8zDy5BEIQCD2CCAxY69O8Sg2CfgOZGpSsqqqKjb9xCuTELjgggu0dZFfdKYOCNDGmRrR/Nvf/mYSPzATAhAwigAS0yiy5AuByBKQxPzOd77jzXPZsmWRzZ/cINBeAt/4xjcUnfnss89qlN33Wf0EOu+88+699972Zkh6CEAglgggMWOpNvEllgmccMIJs2bN8nr48MMPsw17LNe3eXw799xzNaY+d+5cX5M/+OCDa6+99qc//emrr75qHlewFAIQiCSBbgcPHlR+3bp18+Tq+TOSJZAXBCAQIQJaVHHGGWe8+eabnvwuuuiiJ598MkJ5kw0EOkrgpZdektD0O/jnW9/6lrbVvO666zqaO89DAALRTSBQSTKKGd01hnUQ8CFw9NFH+w5kPvXUU9ovBkIQiBICZ5111pYtW2699VZfez788MNf/OIXGuncunVrlNiJGRCAQOcQQGJ2DmdKgUBkCPz85z/3PWSlqKgoMvmSCwQiRGD+/PnaV8tut/vmp8OBHn30US0GilAhZAMBCJiAABLTBJWEiRDwJeA7kKkDV1auXAkfCEQVgdNPP/2GG27wNenOO+9UFNZ3v/vdu+66K6pMxRgIQMA4AkhM49iSMwQMIXDZZZeNHz/emzUDmYZQJtMOEJCalKb0ZpCVlaVYzLvvvlu/iF588cUhQ4YQ4NEBujwKAdMQQGKapqowFAJeAr4Dma+88gobGPHdiCoC2ph906ZNXpNmz57t+ffQoUO1QO2WW2657bbbdEpQdXV1VJmNMRCAQGQJIDEjy5PcINAZBLTp4NSpU70laSBTi807o2DKgEBbBBwOR2FhoTdVbm6uX1zmJZdcUlNT86Mf/WjMmDFaCfTRRx+1lSX3IQABUxJAYpqy2jAaAr4DmToYmulyvhJRQkBDmNoU02NMSkqKdwjTz7zrr7/+vffe0y4nCtD0nVWPEi8wAwIQ6DgBJGbHGZIDBLqAgDbI1PiQt2BJzLq6ui6wgyIh4ENAQZbFxcXeC9KXqampwQglJSX94Q9/0JT65s2bTzvttLKysmApuQ4BCJiRAFuvm7HWsBkCbgJ///vfJTQ//vhjDw6Na95zzz2ggUBXEfjyyy/PPvts7/6XmZmZftuwt2KYYjQVoHnSSSdpz6Mf/vCHraTkFgQgEJ0E2Ho9OusFqyAQDoFTTz115syZ3ieXLFmirQfDyYhnIBAJAnfccYfv/urBpshbLMqz+kdRm2PHjtXy83379rWYjIsQgICJCDBRbqLKwlQI+BNISEj4+te/7r2an5//z3/+0z8Rf0PAeAKvvfba73//e285U6ZMyc7Obm+xWv2jAE19pRWgqZjO9j5OeghAIKoIIDGjqjowBgKhElizZs0PfvCDV199VYOX3mf+8Y9/3HzzzaFmQToIRI7A7373u08//dSTn81my8vLCy/vxMREbc+u7TM1ya5vuL7n4eXDUxCAQJcTIBazy6sAAyDQPgLbt29X1Nr777+vqLWLLrpID+tP7TXozUXbZF5zzTXty5TUEOgAgfvuu8/3Kzdv3ryCgoIO5Hfo0aeeekrf7e985zv6qg8bNqzjGZIDBCBgHIHAWEwkpnG0yRkCESawd+9e9bilpaUSlIpX88193LhxzzzzjOfK8ccfr2NUtEQ3wsWTHQRaIqD4y3PPPdc7hJmWllZZWanByJbShnNNi9huvfVWzbxLaJ5wwgnhZMEzEICA8QQCJSYT5cZTpwQIRIKAtrNWgFr37t0VrOanL5X9ggULvJ269rJWUGYkyiQPCLRBoKGhYc6cOV59qdS//vWvI6gvlaG+7frO65uv77/vpu5tWMZtCECgqwkgMbu6BigfAm0RePzxxwcPHlxVVaXtA7VJdc+ePQOf0NF8Upne63/5y19uv/32wGRcgUBkCUhf6mvpzfOmm26aNm1aZItQbvrO65uvgvQW6F3QGxHxIsgQAhCIOAEmyiOOlAwhEDEC27Zt08x4bW2tpggvvPDCNvNV7/7www97kn3ta1/TdLmO6WvzKRJAIDwC2mV9xowZ3mfPP//89evXh5dV6E89/fTTeil0bpBeiuHDh4f+ICkhAAFDCTBRbiheModAxAh8+OGH2vNSEZaKctP6nlD0pcrWQGa/fv08Rvzvf//T6nLthh0xm8gIAj4E9LXUmKX3ghbldM4stt4FFa33Qm+H3hG9KVQLBCAQnQSYKI/OesEqSxPQFtYKOzvqqKMUguZ7FnmbUE4++WTf6fItW7YQlNkmNBKEQaCxsVFT5Pv37/c+K335/e9/P4yswntE74XeDr0jelP0voSXCU9BAAKGEkBiGoqXzCHQPgKrV68eNGjQX//6V20KqK2njz322PY9Hxd36aWXXn/99d6n1PsSuNZehqRvk4DGL3W2uDeZlvj85Cc/afOpyCbQ26F3RG+K3he9NXp3Ips/uUEAAh0kQCxmBwHyOAQiQ+CVV15RhNkHH3ygCLMJEyZ0JNPPP/98zJgx3qP8jjnmmCeeeEJXOpInz0LAS+Chhx76v//7P++fF1xwwdq1a7uWjwzQ63PiiSfq9Tn99NO71hhKh4A1CRCLac16x+uoJiBZmZubO378eK2W0PqeDupLufrNb37Td7pcG8pMnz69pqYmqilgnEkI7NixQ1PkXmNPOeWUzgnBbB2P3hq9O3qD9B7pbdI71Xp67kIAAp1AgInyToBMERAISmDRokUKJtNR4wos09qFoOnaecNuty9fvtz70O7duzXspNHNdmZDcgj4E5C+9F1hI3156qmn+ifqor/1Buk90tukd0pvVhdZQbEQgMAhAkhMvgoQ6BoCjz32mJZHaOhFW/2pn9Z0dmTtuPLKKzV16M3ztddey8rKimwR5GY1AldcccWGDRu8XmvLgh//+MdRBUHvkd4mvVN6s/R+6S2LKvMwBgKWIkAspqWqG2ejgoBWJ0j86TRIxY0pjs1Qm6699tp7773XW4TONH/yyScNLZHMY5VAXl6eltd4vbv44osV4xvNzuoAAr1oOnNSL9oZZ5wRzaZiGwRigACxmDFQibhgYgJ1dXXSfIob04Ci1vcYrS9FatmyZZdccokX2VNPPaW4TBMTxPQuIrBw4UJffamDyKMhBLN1GHq/9JbpXdMbp/dOb1/r6bkLAQhElgAT5ZHlSW4QCErg97//vULEjj76aIWLaUVC0HSRvlFWVpaRkeHN9U9/+tOtt94a6ULIL5YJ3HffffPmzfN62KdPHx0ipS+zKXzWu6Y3Tu+dDNY7aAqbMRICsUEAiRkb9YgXUU3gz3/+88CBA1999VVNkWujyh49enSyuZWVlZIF3kJ/85vfPProo51sA8WZlIDCGa+55hqv8drtvKSkZOjQoSZyR2+c3ju9fXoH9SbqfTSR8ZgKAfMSIBbTvHWH5SYgoM0pFQ320UcfKRpM26l0ocWaJUxNTXW5XF4bqqur09PTu9Akio5+As8///zYsWN97dQVU++xum7dOr2Sxx9/vF7JESNGRH8VYCEEzEKAWEyz1BR2mp5AbW2txn60vEYBYRo+6Vp9KZrJyckay/TFqoEotjEy/ffMSAf0I8RPX2qHc1PrS9HSm6j3UW+l3k29oXpPjURI3hCwNAEmyi1d/ThvEIHf/e53CvzS/ikKAtM6A4NKaW+2GrMsLy/3fUoBah9//HF78yG9FQjs2rXrhz/8oa+nOqGxExaodQ5bvZV6N/WG6j3V29o5hVIKBKxGAIlptRrHX2MJKMZRi211lI625dPmz9JwxpbXztzHjRv3wAMP+D6UmJj47rvvtjMbksc4gU8++URhFb5Orly5Mtq2wOxgHejd1Buq91Rvq95ZopM7yJPHIRBIgFjMQCZcgUA4BLTbs2K89u/frxivKN/k/Pbbb587d66vk5pD9111Ho7/PBMrBA4cOOB3EIC2K7rxxhtjxb8W/NDovl7epKQkvby8CC0A4hIEQiBALGYIkEgCgXYS+Pe//3311Vdr+8kLL7xQ63uiXF/KuV//+te++7HrSmZmpsLs2uk3yWOQwJYtW/z0pcRlbOtL1aLeWb25en/1Futd1hsdg1WLSxDodAJMlHc6cgqMLQIaEVQ4V8+ePRXa5bu3S5R7qX5US2t9jVT/6jeHHuUuYF7ECRQVFY0aNco328suu8x3x/WIlxhVGer91Vusd1lvtN7rqLINYyBgRgJITDPWGjZHBYFHHnlkwIABf/vb37TZnrZ0/uY3vxkVZoVshEZutm/f7ps8JydH0WkhZ0DCmCKgQ+1nzpzp69I555xjtQhFvcV6l/VG673W2613PKbqGGcg0LkEiMXsXN6UFhMEFLmoyC2txVbklhbQmNqnt956a9CgQf/973+9Xugoau1TbWqnML69BLRU3G9Ue8aMGffff39784ml9OvXr9drrkFNveaKJIkl1/AFAkYQIBbTCKrkaSEC77///s9//vOJEydefPHFWt9jdn2pmtNQjban6du3r7cWdfa0zjH3FZ0WqmDruapzAU4//XQ/fVlQUGBxfakvgt5uveN60/W+663Xu2+9bwceQ6BDBJgo7xA+HrYUgYULFypIS8tOFbClWMaY8b13796aGRw9erTXI51jro2pdSBQzPiIIy0SqKio0OaX2rjH967Oh/Q9kbzFB61zUW+63ne99Xr31QJYx3E8hUDHCSAxO86QHGKfQGlp6amnnvr6669rCz1t1JyQkBBjPmt3zOeee27y5MlevzSsJZWpiLQY8xR3vAT0rZ4wYcI///lP7xVNCr/88stTpkyBki8Bve966/XuqwVQOyBu8IEABEIhQCxmKJRIY10C6nEVj/Xpp58qHuv888+PeRBXXXWV7wzpCSecoKW1WgYU845bzcG77777+uuv9/V68ODBzzzzzLe//W2roWiXv0KkBkH7OqlBOPPMM9v1LIkhENsEiMWM7fgD26kAACAASURBVPrFu0gS2LNnj/TWpEmTsrOztb7HCvpS+JYvX37DDTd4Oe7du1fLPnTaHudMRvK71aV56WB67XPppy91cvdrr72GvmyzZtQOqDVQm6CWQe2DWok2HyEBBCxLgIlyy1Y9jrdGYMGCBQq9Ov744xWGpUj/1pLG3L0777zz5ptv9nVL+7SPHTt248aNMeer5Rx6/vnnx4wZc9ddd/l6rv0g//KXv1iORQccVpuglkHtg1oJtRUdyIlHIRDLBJCYsVy7+BYGAa11+N73vvfmm28qDFFzxDabLYxMzP6IpgLFQcuAvI5oRYhUprYMNLtrVrb/t7/9rSpRx9j4QtCXfNmyZVbGEp7vahmETq2E2gq1GHpfwsuHpyAQwwSIxYzhysW19hHQ0XmSVp999pmirM4777z2PRyLqR0Oxy9/+Uu/gyU1P+g50CgWPY5Zn7RjQH5+vuIIfT08+eSTVZUs7ul4rT/77LNqOo4++mg1HSNHjux4huQAATMSIBbTjLWGzYYT2L17t4420Vl5P/7xj7W+B33pIZ6Wlvb000/fcsstvhWwevVqjYT9+c9/NrxWKCBCBJYsWWK32/305dSpUzdt2oS+jAhjtRhqN9R6qA1RS6L2JCLZkgkEzE6AiXKz1yD2d5SAdplWQJWWTiu4SvH7Hc0u5p7/zW9+8+STT2qvFq9nTqfzJz/5yZw5c9iePcpr+x//+Ic2orruuus++eQTr6nf+ta37rvvvocffth3v/0od8QU5qn1UBuilkTtiVoVU9iMkRAwlAAS01C8ZB7VBNTL9u/fX9PB2u5OmyofddRRUW1u1xmnDTK1a6Zkpa8JOmRSw5l//etfu84uSm6NwKpVq7Syx++QcR1Uo+3WrbaCrTVMEb2nNkQtidoTtSpqW9TCRDR7MoOAyQgQi2myCsPciBDYvHmzYqcaGhoUO3XuuedGJE8rZCJZqejMgwcPep3VBoFz586dPXt29+7drUDAFD7qTEjtCaB9AHytPfbYY/Wd/8UvfmEKF2LASP0qE3Bt265GZtSoUTHgES5AoHUCgbGYceotfDsMz5/8FwKxSkBnmWgj8e985zvaADJWfTTUrw0bNgwdOtSvoRk2bNgjjzxiaLlkHiKBBx988LTTTvOrIG17uX379hBzIFkECaidUWujNkctTwSzJSsIRCEBb7PjtY2J8tZFOXdjioA2bVGY1IknnqiQKUXlx5RvneXMOeecI5Wp/dh9C5R8UcyfFpv7bYjTWUZRjpuAQmY1Mz59+nTfYz+/8Y1v6PBDbXups8jB1PkE1M6otVGbo5ZH7U/nG0CJEOhCAkjMLoRP0Z1HQHFp/fr1+/vf/65N7LRVsvrdzis75ko67rjjdMhkUVGRVjb4Ovf4449nZmbedNNNtbW1Med0VDv0wgsvKMjykksuUZylr6FSnLqi2Iaotj7WjVNrozZHLY/aH7VCaoti3WP8g8AhAsRi8lWIcQIvvfSSIqK++OILRURpeUqMe9u57mnBss6Jkdb0KzY1NVVHFM6cObNzzbFiaTt27NCeRA888ICf8zp4ZtasWX4bTlkRUJT5rBkANUdaFaTm6Kyzzooy6zAHAh0iEBiLicTsEFAejmYCCn5Sa66ge3W0fhO70Wy26WyTiJfQ1Cytn+U/+tGPtAzoggsuMJ1HpjB4165dEpdLly798ssvfQ2Oj4+XuNdHM7OmcMSCRq5YseLWW2/VQkMJzVNOOcWCBHA5JgkESkwmymOyonEqTuJSXWxKSooCodCXhn4hNBjzxBNP6AC94cOH+xak2dsJEyYoNPCNN94w1ACrZV5fX69tF8844wydJu+nL0Vb20hJ8aMvo/lboRZJ7ZJaJ1WTWqpoNhXbINARAkjMjtDj2WgksHLlSjXc77zzjramU0/MZjqdU0k6J6aysnLRokXqOH1L/NOf/qQATY3ZvP32251jSWyXomFLiUvtSfThhx/6eqpAzI0bN2rGPHC9f2wDMal3apfUOqmNUkul9kqtlkkdwWwItEKAifJW4HDLZARefPFFDQl89dVXmn7SwmeTWR8r5io+QaNod999t59DWvSgVef6cD5nGFUtIaJDO/UJHBLW4ZCaFpfEDCNbHokGAs8//7waLolONVxnn312NJiEDRAIg0DgRDkSMwyMPBJ1BBSXpjZaLbXCLrUFXdTZZz2DNKIpoak15oGuqxP1aE1tBh54lyt+BNatW+cRl35z4kqmAUuJS02OAy0GCBQXF2uwX7+NJTT79OkTAx7hgtUIBEpMJsqt9h2IQX/VLmumSfsbK7wJfRklFazJ8dWrV0sbjRgxws8kDTZfffXVgwcP/tWvfuW7g2OUWB4lZmjjpz/84Q8ZGRlaL6Vtbvz0pb7wUvAKu0RfRkl9ddwMtV1qwdSOqXLVpnU8Q3KAQJcTYBSzy6sAA8In8NBDD6ktHjlypH73a8O58DPiSSMJlJaW6uwf7f7dYiGXXXaZBjV1DHqLdy14USv0PcOWOgcy0P0BAwbosHgNXmpbosC7XIkBAu+++67mZLZs2aI5mcsvvzwGPMIFixAIHMVEYlqk6mPNTa1WViv83//+V+JS+0vHmnux6I+mzj1a8z//+U+gf1rC4pk9/9a3vhV41wpXDhw48Oijj0pcKt6jRX81nCk5Ln2pbYlaTMDFWCKgxVtq4r7+9a+ridP+X7HkGr7EKgEkZqzWrIX8cjqdanl1Zol+4l9xxRUW8jwmXH3//fc9QrOmpibQoZ49e2oLpFFNn8AZ9sD0MXDlgw8+0O8lfdavX6+VUoEeJScnS1ZKXFoESCABK1/RFgGaqNGKLglNnWhgZRT4Hv0EkJjRX0dYGJTAwYMH1dpKX+bn50tf6vd90KTciHoCjz32mGbPAzds9xquyAcJTa0NOv/883XEc9Q71D4Dt23b5lGWOhqgsbGxxYcVAeIZtuzVq1eLCbhoBQKaq1G7px2OpDLV7nl7cSv4jo/mIoDENFd9Ye0RAtpeUe2shrjUzrKtdMx8M7RgRUJT45p79+5txSkN4I0ePXrcuHESna0ki/JbihCQrJSmfPbZZ7UHQjBrbTabZ9hS2jpYGq5bjYAOa9Wva8XpSmX+3//9n9Xcx19TEEBimqKaMLIZgU2bNqlt1RCmxKUmjKATewQ0WSyVqXHNrVu3tu6dZtK1q4u015lnnpmWltZ64ii5qwFLaUp9tICjdZMGDRrkGbZk7VrroCx7VwFCagzVkasx1I8uy3LA8egkgMSMznrBqpYJaAsPtaca+NEPdzZnaZlRbF3VYSf6ReH5tLie2tddRUpo5yPPR+JM/+jdu3eX89By4J07d8oR/dfz+fzzz1u3Sos59FFIAKs6WgfFXQ+BBx98UFM6+rZIaPbt2xcsEIgSAkjMKKkIzGiDwP/+9z9P2KUn/OhrX2MD1zaIxdhtxZ8988wzWlutHxg7duwI0bukpCQJTY/c9PxDo54hPhteMklJr5r0/CNwg/QWc9aWQ+PHj9dAlIQC+2y3iIiLrRCghWwFDre6igASs6vIU247CPAbvR2wLJBUUWiaZZbi1CzhZ5991i6PTz755P79+x/T9NFhQp5/tPLnF1988emnn37yySd+/w28qKXxGqRU/Ea77DnttNO095Dm+hmwbBc3ErdIgHmeFrFwsasIIDG7ijzlhkSASKOQMFk4kb4h0poa2tRR3Q0NDWYhIVmpMUuFkDJgaZYqM5GdRKubqLJi21QkZmzXr4m9Y72kiSuvi0zXd0ZC0/fTRYY0KzYhIUHrkPw+0WAYNsQ2AfbciO36NYV3SExTVJO1jGTXN2vVt5He+ilOaVAjS3Pnfdxxx/mpScYpjWZO/sEIsHNwMDJc7xwCSMzO4UwpoRLg7IpQSZGu/QQ0ky7RuW/fPkVSej46pLH1fx911FG+8Zqef/fo0SPwoq5IXMbenvDtx8wT0UWA88+iqz6sZA0S00q1Hd2+cgJvdNcP1kEAAiYmoHhl7fimOSJtyjFmzBgTe4Lp5iGAxDRPXcWupdo4UG2ftqHWbpeXX3557DqKZxCAAAS6ksBDDz2k3d90EqmEJvv5d2VNWKPsQInJdoPWqPno8FJnMd98882nnnqqToDUdhvoy+ioFqyAAARik4DaWLW0am/V6qrtVQscm37iVbQSQGJGa83EnF3FxcU6iEK7CWoRhsYvY84/HIIABCAQjQTU3qrVVdurFljtcDSaiE0xSqCbZ+vgwOHNGPUXt7qAgM5o0cx49+7dNVmjU/K6wAKKhAAEIGB5Ai+++KKa4q+++kpNsfb/tzwPAESYQKCSRGJGGDHZ+RJ455131KJVVlbqZ/TPfvYz4EAAAhCAQNcSWLlypQI0MzMzJTR19lXXGkPpsUQgUGIyUR5L9RtFvuiHcn5+vnZ1UROmORr0ZRTVDaZAAAIWJqDWWG2yWma1z2ql1VZbGAauG0sAiWksX2vmvmLFCgX91NbWqiHTD2VrQsBrCEAAAlFLQC2z2me10mqr1WJHrZ0YZmoCTJSbuvqizvgNGzZoZlz7V6v9Ouuss6LOPgyCAAQgAAEfAi+99JIa7S+++EKN9tixY2EDgbAJBE6UIzHDhsmDzQi8/fbbaqe2bt2qsMtp06ZBBwIQgAAEzEJg1apVCtAcMWKEhOb3vvc9s5iNnVFFIFBiMlEeVRVkSmO+/PLLefPmff/739fWa9pWHX1pylrEaAhAwMIE1G6r9VYbrpZc7bladQvDwPWIEUBiRgylNTO6//77FcrzwQcfKKxHW/taEwJeQwACEIgBAmrD1ZKrPVerrrY9BjzCha4lwER51/I3cenPPfecZsYTEhI0sTJq1CgTe4LpEIAABCDgQ2Dz5s1q3hsaGtS8n3vuubCBQCgEAifKkZihcCNNMwJ///vf1fq88sorCrv86U9/Ch0IQAACEIg9Ag8//LACNE8//XQJTc2hx56DeBRZAoESk4nyyBKO8dy06nDu3LmDBw/WhmraVh19GeP1jXsQgICFCaiFVzuv1l5tvlp+tf8WhoHr4RBAYoZDzZrPLF++XAE6e/fuVbCONuy1JgS8hgAEIGApAmrt1ear5Vf7r17AUr7jbAcJMFHeQYCWePzZZ5/VzPjRRx+t6ZKRI0dawmechAAEIAABHwJbtmxRR/DZZ5+pIzjvvPNgAwE/AoET5UhMviStEXjrrbfUpmzfvl1hl1OnTm0tKfcgAAEIQCDWCZSUlChAc9iwYRKaAwYMiHV38a8dBAIlJhPl7cBnqaQul+vXv/71aaedpm3StK06+tJStY+zEIAABFokoL5APYL6BfUO6iPUU7SYjIsQEAEkJl+DFgj88Y9/VNjNRx99pBAcbcPbQgouQQACEICAVQmoX1DvoD5CPYX6C6tiwO82CDBR3gYgq91+5plnNDN+zDHHaBLkzDPPtJr7+AsBCEAAAqETePnll9VlfPrpp+oyzj///NAfJGXsEQicKEdixl4th+mRw+FQS1FdXa2wyylTpoSZC49BAAIQgIDFCJSWlipAc+jQoRKa2uTIYt7j7iECgRKTiXK+HHE6wuFXv/pVenq6Nj/TturoS74TEIAABCAQOgH1Guo71IOoH1Fvoj4l9GdJGcMEkJgxXLkhuXbfffcpmGb//v0KrNHmuiE9QyIIQAACEIBAcwLqQdSPqDdRn6KeBTwQYKLcut+B9evXa2a8Z8+emtrIzMy0Lgg8hwAEIACByBGorKxU5/Lxxx+rcxk3blzkMianqCYQOFGOxIzqCjPIuJ07d+r937Fjh8IuJ0+ebFApZAsBCEAAApYl8MgjjyhAc8iQIRKaAwcOtCwH6zgeKDGZKLdO7bs9/fzzz3/5y1/+8Ic/1JZm2lYdfWmt6sdbCEAAAp1FQP2Lehn1Nepx1O+o9+mskiknWgggMaOlJjrBjnvvvVchMpq8ULiMtszthBIpAgIQgAAErExAfY16HPU76n3UB1kZhQV9Z6LcEpVeXl6umfGkpCRNWGRkZFjCZ5yEAAQgAIGoIVBVVaVuSIuB1A1lZWVFjV0YEjECgRPlSMyIwY3OjN5880291a+99prCLn/yk59Ep5FYBQEIQAACViDw6KOPKkDzBz/4gYSmTqG0gsvW8TFQYjJRHrO1/9lnn82ZM2f48OHaqEzbqqMvY7amcQwCEICASQioJ1J/pF5JfZN6KPVTJjEcM8MhgMQMh1r0P7Ns2TIFvuhQLwXBaCPc6DcYCyEAAQhAwCIE1Cupb1IPpX5KvZVFvLagm0yUx1qlr1u3TjPjxx9/vKYhRowYEWvu4Q8EIAABCMQKga1bt6rD+uijj9RhjR8/PlbcsqgfgRPlSMzY+Sq88cYbelf1X4VdXnbZZbHjGJ5AAAIQgEDsEvjzn/+sAM1BgwZJaOq/setojHsWKDGZKI+FKj9w4MBNN910xhlnaPsxbauOvoyFSsUHCEAAAtYgoD5LPZf6L/Vi6svUo1nD79j3Eolp+jouKipSOIuCphXaou1tTe8PDpicQP2qiQn6MTs4v6axBU+cS8bobsKoxc4WbnIJAhCwLgH1X+rF1JepR1O/Zl0QMeQ5EtPElfmXv/zl9NNP156Xa9euVcR0cnKyiZ3BdAhAAAIQsDYB9WLqy9SjqV9T76Y+zto8TO89EtOUVfj6669PmjRJv/ny8vK0vkeTC6Z0A6MhAAEIQAACzQmoR1O/pt5NfZx6OvV3EDIpASSmySpOuzzoxdMJPdpUTNuqX3rppSZzAHMhAAEIQAACbRFQ76Y+Tj2d+jv1eur72nqC+1FHAIkZdVXSikFLly5VkEpDQ4MCVrRpbSspuQUBExBorFmQrrDNYJ+EqU8cduKAo+z2GeOH9006plu37glJqUPH/Cy/eHt9qD5uzevbPbCUhPEPNs+hsa7i3ryJowamnJDQLSEhqf/Q8VctLn/X5V9KY1Ve/8Dc3FdSrqvwTVy3pThvypihqUkJyu+YpL7pY6bOL3UErmRotdyK61JaLqzpat8bm5XoW3rFjX0V9Zp5V/Oo111FY5LcDw79rcPfL/6GQPQRUE+n/k69nvo+9YDRZyAWtUYgvrWb3IsaAopN0YZEJ554oqYPFKESNXZhCAQ6QCA+JeOKefNqPTnUV60qqthjS5+cm9XH1nQpYWD/pv/fVz5z7MSiHS5b73T7Jbmpia7aNyrKVy2oWF1asXxjybTUNi1wOZ21jXG2Idm549KasnbVPLG4/K3mzx2oWpCdnb+hzpacbh+Xk9rDVVuzrvz+vPIn1sx7orxgZOKR1MquLi4uPi17VrYnO92q21xcvEVXj3ycD04cc1WZMy4xdYQ9e3RSgqu2enNF6W8rytbvrNhUkNHjcMq2yk0dO3NejwZPauemotKt9Ykjc3JHHQq8Tspo230fo+rL5hdUhKzMfd3h3xDoKgLq+LT65/LLL1cn+NBDD2ljowkTJnSVMZTbPgIHmz7eZzx/8t/oIfC3v/1t4sSJOsv1scceix6rsAQCwQjsX5ntlnGD5lV/1UKS9+6x665tZOF7/jd3FozQncSccr8b+9dMc8upxLEF1Z96bzXsXJ6drB/IvbJW7PbPKPDvnQvTlXXarysP39q/YoLbiqwH9h++0rBxllurJY4sqPReO9hQvcieqFIGzN7Y4JPr6wXpupics9HHwepfp+nx5FkbD6VrWJfTWzI0MWuZj6OfVs4b5i7Xvqw2nHIPHqy8wW1k2k1eRwJ9PXJlozuxLePOIwY0VM2TJk7s5ZbL6bftbO1h7kEgKgmoH1RvqD5RPWNUGmhpowKVJBPlXiZR949PPvlk9uzZZ555pmKftaG6op6jzkQMgkAAAZtnaqTRFTDBHJA0lAt1a4qfqIuLT89dNC/dO/IXZ0u7siBPcm1fRfHqNrc/cjkcTlecLbW/WwW2/NlXUrTKqVLy7p2XcWS80pZ+w9K8Iba4t4qL1/oM/e12OjUm2ictpbVJoKG5y9eUPFBSON1nlLFHxtRsiV1XdVXlITjtKrdl00O/6iyev9jRIzt3mnfsNfRnSQmBqCCgflC9ofpE9YzqH9VLRoVZGBGEABIzCJiuvrxkyRKFnnzxxRcKQ9FWtF1tDuVDIFQCtuQUt/baU1PdbN441Mf90rmqKioVvNjHPt7/yI80+2ipN1dNVVVbWtbpeMcVF5+S1t9nsrt5MSrFPX08ICtrQPMb8WlZY1VKfdXmau+NunclWKVYU1ubotZ0+7jsKdOy3GruQH3dnrq6PU7nLj2YoHxc9fs9Nrer3DAJHn6sfnV+waa4jDn5E5MipP47aBCPQyBcAuoT1TOqf1Qvqb4y3Gx4znACrf0MN7xwCmiJwNNPP62Ik5SUlPXr12sxXUtJuAaBKCYwPDurd1HRroqCn+WnLJqZNSRZ43b1+2prdzkdjprKtU36LGTza/fUHdJzAW1VykkptjhHXG2tgjlbU3sHHDvf0iBmWpqffPSxoXaXuxSNiRZeNcOtAX0+De/s118yXhLUI1GdTrcLaf1S2/BiX1XxwsKiJ8prdvlrYO+D7So3ZGYtJXRVFdxWWtdvdsk16XGLWkrANQiYisC3vvUtrf7xDdC88MILTeWBJYwNaLYt4XWUOqngEonLt99+W4eM//jHP45SKzELAq0T6GHPXza7csrimk0LJg5f0HraNu+6XE0rXWy2QD3nuebSR8cItdKSvVVdo3HQAelDgw5ixh0qpa6q9MGqlk064JLSbMqgfue70rS21LTWZG1cfUXe2PGLtURpQFbuwqzMfimy1i21NxTkLKnxFtGeclu2K8Srznvzi95KnrIy394j7kjxIT5MMghEKwGNwmgt7OOPPz5v3jzPSqDTTjstWo21ol2tNMxWxNFVPn/88ce33nrrihUrtFZuzZo1XWUG5UIgIgSSxxVW1mSVrCqr2OZw7m2Ii09ISklO7TcwbXB6yusFU28PIuNaKttmaxpVPNDC3K60pe64pVurzVjdtiqFTiamD00LniypqRTb2KXO53KTWzLjyLVGR9O0e1or0+5K7HwwX0vg4wbNXre50O4jbev2NDsWrx3ltm5V8LsJ8npfaf6iirhRhQWTg6vs4DlwBwJRTkAjMvoUFhaOGjVqxowZGqPp2bNnlNtsEfOIxez6ir7nnnsUUPLVV18puEQbzHa9QVgAgQ4TsPWx59y8tOTpjZVVlZWbN657rGTpwnm5k7PSU/wmotsoKaWPez7a1bTCxu+jnYjcc+gnpab43/H9u75iU7WmyTNHZQaOg3rTJfZL1crxFkvxz3vfTseuuLge6UODT7s3RYjWyLb0S3N89aWy2vmOe5I9nHL97Qj1b42dViwsKK1Pm70wt9Vx11AzJB0EopOAek/1oepJ1Z+qV41OI61mFRKzK2v8qaee+uEPf/j8888/++yzilk+4YQTutIayoZA9BGwDc/I1ELyXeXrdjQ3rtFRsUmbh9uGtqodNWG9blN9nC3dfngjyRZdtA23u0t5t3zddv/7dVvLyrc66w8LXNe2qkotJx+e6U4f9NM0d980wNosSV1p8SPN1r+HXm7Qotq84SzOv9+RPLkgz70nFB8IxDIB9aHqSdWfqldV36oeNpa9NYNvSMyuqaUdO3ZkZ2fffPPNc+fO1fqeYcOGdY0dlAqBKCeQPDF3cmpco6No7gJ3SOWhj6tmSd5Sic7e2bmTWpvZrltdXL4vzjZsYnZrg47aX1Nb+bhLWTwrr6LuCBHXjqKcSRPHjx5feEh61pc/sq6+0ZY+Nqu1UuMS0wY0rXbfUH5k8LWuYsHP8p2DM9yDsrV1h/abD7XcsCvJVXlvUVV8Vv78bObIw4bIg+YioP5Uvar6VvWw6mfV25rL/liyNnh0Uix5GU2+1NfXK+zygQceUNhlWVlZNJmGLRCIQgKJWYtWzK6ZuHhDfmbauqyxQ1NsTefubK1zJWbMfqAou1cQm98tW7C8onJ1eb17mU510RzfEBTtlOmer3Y8kZ/3TvrEOTkZiTb7wpKCt3S6z+IxaeX2sZmpveIa3q2s2Oyoa0zMmF+cPyLO8WBe0fqKEm3SmZw9s60jhdKvyLXfP7NiQ17mqMqJGUmuPY6K9ZVx45ZuvK1+anpV1Y6lOT+rtY/LLZic1ma5QdwL9XJ9vSv95oLcPqGmJx0EYoOAtmfXZ/HixWefffYVV1yhAM3ERH5ndXrderai9xZr6Z3pjXf+D3/4Q1JS0qxZs/bu3Wt8aZQAgagj0P7TfZpc+HTnmoU5WcNSEzU9bUtMHpCRfU3hund8j9wJ8FQLd0L5BW2zL/WeD/RV7cZls7NHpyX3ssXFq5i0jEtyC597z1PMxpvSEm225CHZBZuPnP/jLdX/dJ+DB/dvW6HzKpN72NwGD7LnLNpY6z4NaP/G27JSlVFiqn1R9aHHWy3X17H2n+6jLUVz1jW3t/rmdDX4nO4T8I3hQmwSUG+rPlc9r/rf2PQwarwKVJLdZJuuduvWzXPP82enC93YL/DJJ5/UhkQnnXSSBi8VIxL7DuMhBLqWwIaZKVlFrmnr9j+QFcQQx4KMofk7Mpe+szFXhz3ygQAEYpfAq6++qi549+7d6oIvvvji2HW0Kz0LVJLEYhpeHzU1NZdccolG6fPz8z3rewwvkgIgAAEIQAACEDhMwLP6R72w+mL1yOqXYdMJBJCYBkLev3//9ddfP3r0aG3WpW3VFXdsYGFkDQEIQAACEIBAcALqhdUXq0dWv6zeWX108LTciQABJGYEILaYhcI+tDuXAg+0U9eNN97YYhouQgACEIAABCDQmQTUI6tfVu+sPlo9dWcWbbWykJiRr/EnnngiPT39hRde2Lhx491333388cdHvgxyhAAEIAABCEAgLALql9U7q49WT63+Wr12WNnwUBsEWO7TBqB23a6urlZA8a5duzzRHu16lsQQgAAEIAABCHQyAelL7STYp08frQQaOnRoJ5ceS8Wx3Meo1iQ1wgAAIABJREFU2vzPf/7zi1/8YsyYMdqCSxu9KprYqJLIFwIQgAAEIACBCBFQf61eW323enD14+rNI5Qx2cQxUR6BL8Fdd92lkA7pd4V33HDDDRHIkSwgAAEIQAACEOgsAuq71YOrH1dvrj69s4qN8XKQmB2qYB3PM2TIkJdeemnTpk2KGj7uuOM6lB0PQwACEIAABCDQFQTUg6sfV2+uPl09O8fvdbwSiMUMk6FnH9d//etfCrtkH9cwIfIYBCAAAQhAIPoI6LQUBWiefPLJnJYSeuUQixk6q6ApP/roo+uuu27s2LHaWEvbt6Ivg5LiBgQgAAEIQMCEBNSzq39XL6++Xj3+vn37TOhE15vMRHn76uDOO+9UoMbXv/51BW1o49b2PUxqCEAAAhCAAARMQkC9vPp69fjf/e531fubxOooMhOJGWplrFmz5rTTTtuyZcuLL76oWOCkpKRQnyQdBCAAgfYTqH+jbMFV4zP7pyQlJCQkpfRNHzN1bnFVXfsz4gkIQCBcAurr1eOr31fvLw0gJRBuTlZ8jljMtmt9+/bt2u1yz549Cru86KKL2n6AFBCAAAQ6RMDleDBn/LWlTldcXLwtsVeirbG+bp/+iItLthesXjNvZGKHsudhCECg/QSeeuopBWj27t1bAZrDhg1rfwYx/gSxmO2rYIVfzJo167zzztN2WdpWHX3ZPnykhgAEwiLg2l4wVfqyMTHjhpLq3Q37a2tr9zbsf33NvLHJcXUV+dPzKw6ElS8PQQACHSAgDSAlID0gVSBtsHfv3g5kZolHmSgPWs2LFy9W2GX37t0ViqHtWIOm4wYEIACBSBKoL7+nuMYVlzqtpPzOKenJh7JOHJRd8FhRTu+4uF0lpZuaRjT5QAACnU5AekCqQNpAAZrSCZ1evpkKRGK2UFuPP/74D37wg8rKys2bNyvCNzGROakWKHEJAsYRqLjRfZaB7ydh1GLn4fLqthTnXTpm4ElJCd27KUhxYMb4mXeUu+eUvZ+64vEJzR8/JiklLXPidUUVe/ysrq9ZlT/13KF9T0jo1j0hIaXv0KwZC1Y7mim4NxYM7d6tW1p+lauu4o4ZYwYrOLKp3HNnLN7gGxrpWDBcmQzM396siPrVU1P0ePe+Mze5r1dcl+Lnmu+ffW+siGt0VNa4EnulT7kqy7/pSbTbh9viGl3OXfV+bvAnBCDQaQSkCqQNpBCkE6QWpBk6rWhzFRRvLnONtnbbtm0Ku/z3v/9dUFBw4YUXGl0c+UMAAq0QSB6ZkzPq8CDeSZlNK+xcjnsn2q8rr4tLTBtln3pJiq3eWbmhomhOeUnZvPL1BRm+oiw+1T7Nnupp5A7UVm+uKFtSVba2ck1VSbYn10Zn6RVjclY5XT1SM8ZOzeptc+2pXrehOH99Sck1ayqWZR0q22azKZN6R8lV9pJtqVOn5GUnxtXWrCleVZy3qaK6tLJk0mEjA51xVRXML61rVEjloXupY2fO69Hg+cO5qah0a33iyJzcw24mZaTGxacWvr6/MDCrJvf3N02R2xJtLd/nKgQg0FkEPKt/nn76aQVoPvTQQwrQHD58eGcVbpJyDjZ9vMZ6/rTgfz/88MPc3Nzjjz/+7rvvtqD7uAyBqCKw8YZUNUppv672t+r1goweUlhpOY/VHrm1d+PsYW7JlXZDZYPnau2KLF3okV3yqU8G+9fl9lMqm/2e9w6lWt40TNg7e4Xj0HO63rCtwN5LijA5p2z/oYffKcxoUnS2QbkbD1/TrfeWNT3eJ3fjoad3FsiM+LR5244UunNRhi2+aSIkPjW3wseYpn9Wety8qdL/RrC/HYVu93vYlzqDpeA6BCDQBQSkHKQfpCI++OCDLig+OooMVJJMlLuZFBYWKuzyqKOOUoCFNln1YuIfEIBAVBGoeqC46kBc4oT8Qt+Bw172gvlTk+PjHI8UV7QSo5hoz0yXVHTt3+uZZXYUL6+ol+KcU5gz4MigoG3YvILpaXGNdSWrypvPRtvsN+bbfUZJU6fnTtTw5Z41ZZuDQKorzb+zKm5Ebq5HogZJFeJl17ulMyblVx2wpc8qyOkT4kMkgwAEOoOAlIP0g1SEAjSlKDqjSDOUYXWJuXr16sGDB2/duvXll19W3G7Pnj3NUGvYCAFrEnBUVNVqMDFznH+Qom2UPVMqcV915VvByRyorH7dpdFE++g0d6J9lZVvuOJs6fax7hFT30/66EwJVte2ympNcHs/SpnRfELcNjR9sCIj66vf8IaJ+mbjqlhUULYvLff2nBTffPwKC+1P5xN59oypxW/ZMm5aU74wEoo1tHJJBQEIhEhA+kEqQlpCikK6QuoixAdjOJl1YzFfeeUVhV3W1dUtXLhwwoQJMVzHuAaBGCHQWFu7SxoxObW3b8Rlk3M9klM0u73LWbc7Lm7IYXddjpL5edWHYzFrNpVXHsjIWVZUMLppzHKX0ynlZ0tJ7XM4/eH/t52UmhIXV7fP6dQwprL1fOJTUrSau9knMcWtOV31tXVxcf46Ne6Novz7HcmT1+SPTCjxe659f7pqlkzMurG8LjEjt7SkcFLqkRHX9uVDaghAwHACntU/a9eu9QZonn766YaXGq0FWFFiKuxSdf/YY48pOFdbW0Vr1WAXBCDgR8C13z0PnmBLCCSTYHMrL1eDSykOa7BGR/ldjnJv2vjEtLEDU70LZVzupO6NzQNbQc/6njiXq9noo676latlQLqkjA4t3/G5XVc6v7Aq3r50vpYGSYCG/3FtyZ/q1pf2wg3rZg/xtyD8fHkSAhAwjIDGrfRZsmTJ+PHjL730UomNE0880bDSojdjy02U33HHHQq71HlsCptAX0bvFxPLINACAVuSW2I1tKDodNEtGG0JPXxEmO9yn09rd5YXpDtL8qdkjl/icOfdw+YeC2101bsfbP6RaHSLS09x3lseTeqbUleaSu3hq3m14ifOtaEgf219+qzCHPcCo458XBUrSxyNcenXLUVfdoQjz0Kg8wlIY0hpSG8oQFPao/MN6PISLSQxNWw5aNAgzY9XVVUpGvfYY4/tcvoYAAEItINAvCa13bGPzl0B44L1TqeuxaemnhQkvx7JaWNzi+bYdRJjxfKSGinI3qkpkqONTucu/0dczqY59OTUZC3f9n6Uco9fylp3oZprT/GZJY+PS4irWTy/2Nl7asGN7uVFHfwkDc+ZfdO8vElN8aN8IAABUxGQ0pDekOqQ9pACkQ4xlfkdNdYSEvOvf/2rBqv1G+J3v/udZ31PR7HxPAQg0AUE0jJHScy5KtdrJXizT/2mikq3aszMGNCaWTYd9q37B+r367+97HbNO7scFRv8Fuu4tNGm8k/MsA/1nUMPTFlfpT3S4+JT0r0n8LgLt+0vyy/cbsuaW+C/KKk104Lds2VcWVC4qGBKq34Fe5jrEIBANBDwrP6RApEOkRqRJokGqzrBhhiXmFrNc+211yokYty4cdpW/YILLugEphQBAQgYRCDjihx7j7j6tQV5T/gMZO4pz7+trL7RlnFVrj0wsPKIKfUVa6ukHW2D0we6k6VO1fE58a6KO/OK3zoyWV6/pSD/Qae2t8y5trlEjI+rvCe/dJc3u/qqhYXubY0GZE8c4eNuo6N4SblrSF7B9ORIQKivWVtauqq0wsfCSGRLHhCAQGcTkAKRDpEakSaRMpE+6WwLOr281trjTjcmwgUuWrRIy3pUkQqGOOaYYyKcO9lBAAKdT2DA7KV3Vo6/tqz40rTKsVn2fkmufQ4NOjr22VInLS2+oflsslaUzz28otxV69hWUbG9Lq5XRr420WyyPHlaUfEmx9QHy2YMH1g6wZ7Wy7b/3cqKTTV1jcn2hcUFI5vPcvfIyh3nyEkfWDwuM62XTvepKN/idNnSchflZ/i2o4319QdScxfOTo9I49roXDN36oI3bPZldvuAiGjWzq8zSoQABI4QmDlz5uWXX64NbRSgecstt8yZMyeG6USkFYw6Pn/+859Vf9///vc1HK3oh6izD4MgAIFwCaRduaZycHHhncXlm8uKN2g+OyUtfcq8yXl509L914ZrRfmSwyvKbbbk3mn2K2fmzpmd1c+rHZOzH6isHF1YuKqsYn1JhTZ1T04dOmF2/jV5uaMD9ZzNvqhiYv/8ggfKS96SuExOG5ebc1N+7mj/HZQSJxTkj+14EGa4gHgOAhCIbgIa89KMuUdoSqhovflll10W3SaHaV03HTukR7t16+bJwPNnmJlFwWPa8lTict++ffpxoIiHKLAIEyAAAZMTeHdx5uC8KtuUNXtLsmPzV7nJKwjzIWBaAuvWrdN0a69evSQ0R4zwjbkxn0uBSjJ2YjFra2uvueaaiy66SMpSS7fQl+b7emIxBCAAAQhAwEoEvIpF6kUaRkomlryPEYn5+9//XmENGnxW2KXOoY+lGsIXCEAAAhCAAARimIB0i2fRiJSM9EzMeGp6ifnoo48OHDiwurpaC7W0vqdHD9+N7GKmmnAEAhCAAAQgAIGYJSD1Ig0jJSM9I1UjbRMDrppYYmovUy3+v+uuu7Svqdb3KGY2BuoDFyAAAQhAAAIQsCYBKRnpGakaaRspHOkcU3Mw5XKff//731rT8+STTyo8VnsSmboCMB4CEIAABCAAAQj4EVi2bJmkzsUXXyyp8+1vfzv6+cTCch/tj69ghZ49eypwAX0Z/d85LIQABCAAAQhAoL0EPLt6S+1I80j5tPfxaEhvponyRx55JC0tbceOHa+++qriYY8++uhoIIgNEIAABCAAAQhAIOIEpHOkdqR5pHykf6SCIl6EoRmaY6K8srJSw8X19fXa7VLRCYYSIXMIQAACEIAABCAQVQTWr1+vHTQTExM1b56ZmRlVtnmMMd9E+fvvv//zn/984sSJ2jJK26qjL6PwW4VJEIAABCAAAQgYSkD6RypIWkiKSLpI6sjQ4iKSeVRPlN9+++0KQUhKSlLYpbYkjYjDZAIBCEAAAhCAAATMSEBaSIpIukjqSBopyl2IUolZWlo6YMCA1157raamRlGu3/zmN6OcI+ZBAAIQgAAEIAABowlIEUkXSR1JI0kpSS8ZXWLY+UddLObLL7+ssMtPPvlEYZfnn39+2I7xIAQgAAEIQAACEIhhAs8884wCNI899lgFaJ555pld62lUx2Lu2bPnqquumjRp0iWXXKLtRtGXXftdoXQIQAACEIAABKKZgJSS9JJUk7STFJR0VFRZGy0T5QsXLlRgwfHHH68gg6uvvjqqGGEMBCAAAQhAAAIQiE4CUk3STlJQ0lFSU9FjZNdLzJKSklNPPfWNN97429/+ptjVhISE6KGDJRCAAAQgAAEIQCDKCUg7SUFJR0lNSVNJWUWDwV0Zi7llyxaFXR44cEBhl+edd1404MAGCEAAAhCAAAQgYF4Czz77rAI0e/TooQDNkSNHdpoj0RKLuXv37iuvvPKyyy7T9k7aVh192WnfAAqCAAQgAAEIQCCGCUhTSVlJX0llSWtJcXWVs10wUb5gwQKFC5xwwgkKHdD2oV3lOeVCAAIQgAAEIACBmCQgfSWVJa0lxSXd1SU+dqrEfPjhh7/3ve/t3Lnz9ddfV0SqzWbrEp8pFAIQgAAEIAABCMQ2AaksaS0pLukuqS9psE72t5NiMTdv3qywy88//1xhl+eee24nO0lxEIAABCAAAQhAwLIEnnvuOQVoatt2BWiOGjXKCA5dEIv5r3/9a8aMGZMnT9amTdpWHX1pRL2SJwQgAAEIQAACEAhGQOpLGkxKTHpMqkzaLFjKCF43dqK8oKBAQQAnnniiAgK0KWgE7SYrCEAAAhCAAAQgAIHQCUiJSY9JlUmbSaGF/mB4KY2SmKtWrerfv/9bb7315ptvKs70qKOOCs8+noIABCAAAQhAAAIQiAgB6TGpMmkzKTTpNKm1iGTbYiaRj8V86aWXFHbpcrkUdjl27NgWS+UiBCAAAQhAAAIQgEAXEtiwYYMCNLUqSAGaZ511VgctMTYW85///GdOTs7UqVO1FZO2VUdfdrC2eBwCEIAABCAAAQgYREA6TWpNmk3KTfpNKi6yBUVsovy3v/2tpvZTUlI0za+tPiNrJblBAAIQgAAEIAABCEScgDSblJv0m1SctFwE84+AxFy5cmW/fv3efvtth8Oh6NFvfOMbEbSPrCAAAQhAAAIQgAAEjCMg5Sb9JhUnLSdFJ10XkbI6FIv54osvKuzyyy+/VNjlOeecExGDyAQCEIAABCAAAQhAoEsIPP/88wrQlOhUgObZZ58dug0Ri8XctWvXFVdcMW3aNG2wpG3V0Zeh1wEpIQABCEAAAhCAQHQSkKKTrpO6k8aT0pPeC9vOcCbKNXKpCfvvfOc7mrzXBp5hl82DEIAABCAAAQhAAALRRkDqThpPSk96T6ovPPPaJzEfeughFfbuu+/+/e9/V0xo9+7dwyuVpyAAAQhAAAIQgAAEopaANJ6UnvSeVJ+0nxRge00NNRbzhRdekIxtbGxU2OWYMWPaWwzpIQABCEAAAhCAAATMSGDjxo0K0IyPj1eA5o9+9KMWXQgnFtPpdE6fPv3yyy/XtknaVh192SJZLkIAAhCAAAQgAIGYJCDtJwUoHSg1KE0oZRiKm61NlB88eFCiVaOjJ510kqbktS1nKDmSBgIQgAAEIAABCEAgxghIB0oNShNKGUofSiW27mBQifmnP/1JWbz33nvvvPOOpsg1Otp6RtyFAAQgAAEIQAACEIhhAlKD0oRShtKHUonSiq0420Is5qZNm/T8//73P4Vd2u32Vh7mFgQgAAEIQAACEICABQlUVFRoLPNrX/uaAjRHjx4dGIvpLzEtyAiXIQABCEAAAhCAAAQiQsA7gR50ojwixZAJBCAAAQhAAAIQgIAFCTSLsGwzctOCgHAZAhCAgAh45oBoJPkyQAACEAhGwDtX7knAKGYwUFyHAAQgAAEIQAACEAiTABIzTHA8BgEIQAACEIAABCAQjAASMxgZrkMAAhCAAAQgAAEIhEkAiRkmOB6DAAQgAAEIQAACEAhGAIkZjAzXIQABCEAAAhCAAATCJIDEDBMcj0EAAhCAAAQgAAEIBCOAxAxGhusQgAAEIAABCEAAAmESQGKGCY7HIAABCEAAAhCAAASCEUBiBiPDdQhAAAIQgAAEIACBMAkgMcMEx2MQgAAEIAABCEAAAsEIIDGDkeE6BCAAAQhAAAIQgECYBJCYYYLjMQhAAAIQgAAEIACBYASQmMHIcB0CEIAABCAAAQhAIEwCSMwwwfEYBCAAAQhAAAIQgEAwAkjMYGS4DgEIQAACEIAABCAQJgEkZpjgeAwCEIAABCAAAQhAIBgBJGYwMlyHAAQgAAEIQAACEAiTABIzTHA8BgEIQAACEIAABCAQjAASMxgZrkMAAhCAAAQgAAEIhEkAiRkmOB6DAAQgAAEIQAACEAhGAIkZjAzXIQABCEAAAhCAAATCJIDEDBMcj7VM4EDpxGO6tfJJGL7A0fKTXIUABCDQ6QTqgzZZQ+fXdLo1FAiBmCIQH1Pe4Ey0ELAl9ktNsbVgjS01saXLLaTkEgQgAAHDCexxOhvj4uJtyb1TEg4X1rDPWXfA8JIpAAIxTwCJGfNV3BUOxqfmPrKzYFhXFE2ZEIAABEInsLtJYg6YXV5TkH6oP3SVTUma+Igr9DxICQEItEiAifIWsXARAhCAAARin0DdLqerMc6WmprKeEvs1zYedjYBJGZnE6e8AAL1Navyp547tO8JCd26JySk9B2aNWPBakfAGIKr/GdJLUd5pi+o0TiE++NYMFyZpMzYEFAIFyAAAQgEEHA6a9XUJPZOTQy4FXjBtati8XUTM9NSEhK6dUtIShmcOfHGooo9AQkPOMpunzE+vW/SMQkJx6QMzJiYd39VvaeN2lM0Rs8G+ySML65Tbp52bGD+9mY516+emtK9W7fufWducl+v+e1Q5ZQypazem8oTCn8oE8/V+vJr+6q0gTdWeVvU+jfKFlwxfmj/lKQEtxMD7VPzHqw6komeqyser6yPmVjqFy2wYabbAP/2tg07vda1XW4zd/kjFgjwwy0WatHEPjQ6S68Yk7PK6eqRmjF2alZvm2tP9boNxfnrS0quWVOxLCv5iG+1zj1qJG3pk3Oz+hyK53TtKi96pCZAjJqYB6ZDAAKdSMBVu8epVkWDmG0W6tq6wD4hv2pfXOKgrOxpqUlx+x2by8vumln2SHnh+jWzhxwOMt9XkTdh4uKt9bbe6Zlj0xMba2s2lS2+qrxsU/HGlVNSE4dOuWlehkduumpKl5Q749KyZ2WneZ6OTx3aI4ghrqqC+aV17rDRQwnSbyrKfcy+eHV+wZVZhaNbDnF3bS/Mf9AZ1y+ncH6GJ4Vz9YzxVxQ7DthSR2dNHJcSt89Rub508aaysg1N5nVcEQTY6THX8HKDYONyFxM42PTxGOH5N/+FQPgEPi3JVhMZnzZvW0h51C7Pcg8e9M5e4WjwPtCwrcDeS5kk55TtP5LLVxtz+wTk/FxOstrEIQXVX3kSKgDU5n7wuZBKJxEEQidAIxk6K/Ok3Fk4QtIrccpjR9qfgwcb1kx267H0m6uPONJQOXuArtnSb9p4pFX6qnbNlWnuqyMKdh5qgvavm+5Wq8mTVuz0ZuksmaK2Ky4xe2VtMzJ7V2SpHFtWiU8715TA0441a0V3LsqwxScmqrlUpHvFoWz2P5crUXikdE/za8tacaic95aOTlR7OOWxwwW8s9TelMOU0veOOLx7Xc4gN4Ss5e8dyre2ybAe2SWfNq/J53Jbam/btvNgiOU2L42/zEjAr51kotwDhP9GlIDGJq/MzBzl/d+YMVkTp16XX7TWcWi26FBpjuLlFfVxNvucwpwBR36F24bNK5ieFtdYV7Kq3GcOyOmsczeOqX0iaiqZQQACliXQWOvY5YqLT0lNPdL+tAjDtX5p8btxcX00HOgWaYc+8cnZt83O6hHn2l5S4pnUrltTtNoZZ8vIW5hzaGBSSftMyb8uK21Aav3rO8Occqkrzb+zKm5Ebu6hschD5SeOLSicnKyhyjwNVQZ86lblFWyuTxxXsHjSIZOrlhepwU2eVFg02cfh3lmFt2Unx9eXLy91HIo4CsgrxAtB7DS83BDNI1mnE0BidjpySxTocu6oqtri/V9Fxfqy0iULZl44MHXUzLJdhxHsq6x8w6VxAftY/1mq9NGZ+rns2lZZ7W3ydjlr9e/k1JBipiwBGSchAIGOEahzOPUr1pY2sF8b+dRsdgdTJo7KyvSbyE622zVF3uis2uYWea5tFZWKX+xnt/dplmHaDet2Oqo3LrK3oWRbtsJVsaigbF9a7u05Kf4SMDF70eLsXvXlt+WX6he472dfef78srrErII7cw6HGzkqN7ujAjLH+ajkpkcSR4/PlGVvVFTsa9mC0K4Gs9PockOzjlRdQaDjkRddYTVlRjkBTZRXNdu0yFXnrNlQXHDb4vKtRVMnJVZuLkhXi7arabsQW0pqH39/bCelpijofJ/T3QFo0lxtt9Od2NY/bWDb31lXwx6H813NmGvUMyEpMTkxWHiTf7H8DQEIWImAo2anmqA+aWltNBEu555acUntE7jbb0rqSe72qXa3JF5q7a46d8B4SkpK281UyJzfKMq/35E8eU3+yISSwIeSpxTds65mSunsnw1MXeYRky5XXdXi+TnFe5Kzli3N9arnxlqnhmzjbI5H8mY0LRjy+dS6T8RwJ9DP+MOXXY6S+XnVvo7sqWw+DdU8j2B2trfc5rnyl6kJRPA9MDUHjDeWgC05NWNawbrhSZnD86p2FBdtyF8xwRbncrmnjeJtiYFfQ5vN5r7o0n4ink/tu04lTuyT5m0Ag1rcWF96xcBS721tqjzAPvGq/IJZGUdmuII+zA0IQMAqBBzbq91jk4MHpgU2Qc0YuBrcTZXNlhA4CqmmShfVljUohee/ShiYLlymdaXzC6vi7UvnZyfG+Q1UHsoyefTEjF6lpRvyM/t7rlTMTM90/ysxK3uc7wSRa7/bC5djfXHLR6zF73d96mNmo6P8Lkd5qHa3Ymc7yw21RNKZgAAT5SaopNgxcUD2RPekUv3ON5oih3rY3Jqv0VXvbviaf9Riu8WlLelQU+1yOLSNkW3gYP8pdf8H3X8n2m9es6as6X8rVxTOykrSwvPr7Pbfsva8JVpcg4BFCdRVbna3KmkZzSMcW6Dh0ZYSkC02VYfkp56TCHU/fcC1v4VM2nvJPQ/j2lCQv7Y+fVZhjncw0j8bV8VC9yx56uSCwpuz3Vo5PjXrpsKC6em2+vIF833C2dWcutdiJntXC/mvJvmqdulYn9yDLffxN6BNO9tZrn/+/G1iAkhME1eeGU23dfexunfTIZONTucuf1c80+KKvEw+NIHlrFFfEJ+SNigEiRlvSx2VnX1J0/+m5cy+c03FnVof6apZWXJ4+0z/4vgbAhCwHIE9a0o3q1VJs49us1WxpfZxp3Fqn3Z/TIrg0SWF+7gTpPRJdg9pOh3uEKDmH/1qbpq1CfkTH5cQV7N4frGz99SCG92BRS1+XNsL8u51xCVPKbxn3uw5E91rjOLTsm+cPe/OAqlSp1b8bDpcqnutpPsXvnPXkVWULebZvott2mlQue2zktRdQwCJ2TXcLVpqXVXF62rTbQM9SrFXU6S8y1GxwW85pKtygxY+xiVm2Id6JrA8C4N6pGemh0MuuV+aOzSqrtYdTsUHAhCAgPY3f6TEvTRnQNbEQW3jSB/lXoBYv7m8wm838j0V5VqzKJ06Klm52Ibb3euBdHF7szzr7h+flJCQdGFRy1PdLZdv21+WX7jdljW3oGlrt5Y+jY6iOYtrXIn2uQXZTTHrRz6JWflzNbeuBAWHp29S7aOkg12Va8v9zWh0VKyucLjjSMP4tGmnQeWGYSqPdDYBJGZnE7dsedomfcHPZpdpxWK/nJyxnt/kqVMsh1VLAAAPJUlEQVSvykqMd1XcmVf81pHWrX5LgXu74Pi0nGsPNa11q0vVsms5p/9KyJBouqo2VGg1um1AmxFXIWVHIghAwPQEmrbX0Sy5/dqcw0eTt+aTbWyOe/PIXSX5t7l//R76uJylcxa7m6axuTkenZo8MXdSalyjo/im/COrs3eV5d9Z4VIAz+SJbh0a4keZLCl3DckrmB70IeeD2pbIZRuSW3hlCwOxydMK8kfYXNsXu4c5mz7pV+SqCa1fm597v8/xaY115TdOHX/pmMxry/ylZyimhmCnIeWGYhtpuppAG0HOXW0e5ZuTQNO+mBU+izRd+5yOd+vc4ZXag21VgTf0KXlaUfEmx9QHy2YMH1g6wZ7Wy7b/3cqKTTV1jcn2hcUFI22urUV5D5TrF7YrPjVn1tSgba0vp8b66lX5C7a6g6IaGmqd2yvKNzhctrSc+bnuXZL5QAACViawr3RqRn5Vfa1TP3fj4qoXjum7yB9Hwz73L17Hkqy+qxKSr1hTeXO6trrMv7+gakJexR3j0zbYx2ek2hprqzeVV73rsg3KKV7m3RgoMWvRitmOiYu3LBiTVpaRkZai0302Vzl1ms6koqXTQmrADlnTWF9/IDV34eygClgq+TaFWqbmLMxreR49Xvsc5RaPXlyxMK940rqc3vp5n7tieY1O9ym7amjqcrs9PTXBVbtzc3nVLpet35SiO6e0x77D0Nq0UwmNKNe/0vg7Kgl4An49pvkH//I3BNpLwHO8RMBX3dYjMXWIfcrNK6r3Bua4v3rlvClj05ITFTZuS+ydZp80e2nFoeMpGspyknvYbL0zcpZV+56/cSiXFk/38S1dGfZJt0+et2Kb/wEagXZwBQKtEKCRbAWOmW55jq4JaKOCXUi9odLrXYNz49JZ2Rn9krXfha1HcuqwrJyFa3YGNi2f7lyzMCdrSGqi2i41fSOyZy+vrD10/I8PqtZP91Gk0CUlzY8D0nIcNZKe0332r2sauWyWxv90H5W1f02Trk2etsZr5v7X1xRMz0qXF5pMOtQyl1T7etGu033asPOIv22Xa6avEba2TMCvneymVLrUrVs3/dfz72BvGtchAAEIWJYAjWSMVH1d8fjUGeXx2SW1a6b4zLQEelc1Z2DmHQ5JzPfuzAi8yxUIQCCQgF87SSxmICKuQAACEIAABCAAAQh0iAASs0P4eBgCEIAABCAAAQhAIJAAEjOQCVcgAAEIQAACEIAABDpEAInZIXw8DAEIQAACEIAABCAQSIDlPoFMuAIBCEDAnwDLffyJ8DcEIACB5gRY7sM3AgIQgAAEIAABCEDAWAJMlBvLl9whAAEIQAACEICABQkgMS1Y6bgMAQhAAAIQgAAEjCWAxDSWL7lDAAIQgAAEIAABCxJAYlqw0nEZAhCAAAQgAAEIGEsAiWksX3KHAAQgAAEIQAACFiSAxLRgpeMyBCAAAQhAAAIQMJYAEtNYvuQOAQhAAAIQgAAELEgAiWnBSsdlCEAAAhCAAAQgYCwBJKaxfMkdAhCAAAQgAAEIWJAAEtOClY7LEIAABCAAAQhAwFgCSExj+ZI7BCAAAQhAAAIQsCABJKYFKx2XIQABCEAAAhCAgLEEkJjG8iV3CEAAAhCAAAQgYEECSEwLVjouQwACEIAABCAAAWMJIDGN5UvuEIAABCAAAQhAwIIEkJgWrHRchgAEIAABCEAAAsYSQGIay5fcIQABCEAAAhCAgAUJIDEtWOm4DAEIQAACEIAABIwlgMQ0li+5QwACEIAABCAAAQsSQGJasNJxGQIQgAAEIAABCBhLAIlpLF9yhwAEIAABCEAAAhYkgMS0YKXjMgQgAAEIQAACEDCWABLTWL7kDgEIQAACEIAABCxIAIlpwUrHZQhAAAIQgAAEIGAsASSmsXzJHQIQgAAEIAABCFiQABLTgpWOyxCAAAQgAAEIQMBYAkhMY/mSOwQgAAEIQAACELAgASSmBSsdlyEAAQhAAAIQgICxBJCYxvIldwhAAAIQgAAEIGBBAkhMC1Y6LkMAAhCAAAQgAAFjCSAxjeVL7hCAAAQgAAEIQMCCBJCYFqx0XIYABCAAAQhAAALGEkBiGsuX3CEAAQhAAAIQgIAFCSAxLVjpuAwBCEAAAhCAAASMJYDENJYvuUMAAhCAAAQgAAELEkBiWrDScRkCEIAABCAAAQgYSwCJaSxfcocABCAAAQhAAAIWJIDEtGCl4zIEIAABCEAAAhAwlgAS01i+5A4BCEAAAhCAAAQsSACJacFKx2UIQAACEIAABCBgLAEkprF8yR0CEIAABCAAAQhYkAAS04KVjssQgAAEIAABCEDAWAJITGP5kjsEIAABCEAAAhCwIAEkpgUrHZchAAEIQAACEICAsQSQmMbyJXcIQAACEIAABCBgQQJITAtWOi5DAAIQgAAEIAABYwkgMY3lS+4QgAAEIAABCEDAggSQmBasdFyGAAQgAAEIQAACxhJAYhrLl9whAAEIQAACEICABQkgMS1Y6bgMAQhAAAIQgAAEjCWAxDSWL7lDAAIQgAAEIAABCxJAYlqw0nEZAhCAAAQgAAEIGEsAiWksX3KHAAQgAAEIQAACFiSAxLRgpeMyBCAAAQhAAAIQMJYAEtNYvuQOAQhAAAIQgAAELEgAiWnBSsdlCEAAAhCAAAQgYCwBJKaxfMkdAhCAAAQgAAEIWJAAEtOClY7LEIAABCAAAQhAwFgCSExj+ZI7BCAAAQhAAAIQsCABJKYFKx2XIQABCEAAAhCAgLEEkJjG8iV3CEAAAhCAAAQgYEECSEwLVjouQwACEIAABCAAAWMJIDGN5UvuEIAABCAAAQhAwIIEkJgWrHRchgAEIAABCEAAAsYSQGIay5fcIQABCEAAAhCAgAUJIDEtWOm4DAEIQAACEIAABIwlgMQ0li+5QwACEIAABCAAAQsSQGJasNJxGQIQgAAEIAABCBhLAIlpLF9yhwAEIAABCEAAAhYkgMS0YKXjMgQgAAEIQAACEDCWABLTWL7kDgEIQAACEIAABCxIAIlpwUrHZQhAAAIQgAAEIGAsASSmsXzJHQIQgAAEIAABCFiQABLTgpWOyxCAAAQgAAEIQMBYAkhMY/mSOwQgAAEIQAACELAgASSmBSsdlyEAAQhAAAIQgICxBJCYxvIldwhAAAIQgAAEIGBBAkhMC1Y6LkMAAhCAAAQgAAFjCSAxjeVL7hCAAAQgAAEIQMCCBJCYFqx0XIYABCAAAQhAAALGEkBiGsuX3CEAAQhAAAIQgIAFCSAxLVjpuAwBCEAAAhCAAASMJYDENJYvuUMAAhCAAAQgAAELEkBiWrDScRkCEIAABCAAAQgYSwCJaSxfcocABCAAAQhAAAIWJIDEtGCl4zIEIAABCEAAAhAwlgAS01i+5A4BCEAAAhCAAAQsSACJacFKx2UIQAACEIAABCBgLAEkprF8yR0CEIAABCAAAQhYkAAS04KVjssQgAAEIAABCEDAWAJITGP5kjsEIAABCEAAAhCwIAEkpgUrHZchAAEIQAACEICAsQSQmMbyJXcIQAACEIAABCBgQQJITAtWOi5DAAIQgAAEIAABYwkgMY3lS+4QgAAEIAABCEDAggSQmBasdFyGAAQgAAEIQAACxhJAYhrLl9whAAEIQAACEICABQkgMS1Y6bgMAQhAAAIQgAAEjCWAxDSWL7lDAAIQgAAEIAABCxJAYlqw0nEZAhCAAAQgAAEIGEsAiWksX3KHAAQgAAEIQAACFiSAxLRgpeMyBCAAAQhAAAIQMJYAEtNYvuQOAQhAAAIQgAAELEgAiWnBSsdlCEAAAhCAAAQgYCwBJKaxfMkdAhCAAAQgAAEIWJAAEtOClY7LEIAABCAAAQhAwFgCSExj+ZI7BCAAAQhAAAIQsCABJKYFKx2XIQABCEAAAhCAgLEEkJjG8iV3CEAAAhCAAAQgYEECSEwLVjouQwACEIAABCAAAWMJIDGN5UvuEIAABCAAAQhAwIIEkJgWrHRchgAEIAABCEAAAsYSQGIay5fcIQABCEAAAhCAgAUJIDEtWOm4DAEIQAACEIAABIwlgMQ0li+5QwACEIAABCAAAQsSQGJasNJxGQIQgAAEIAABCBhLAIlpLF9yhwAEIAABCEAAAhYkgMS0YKXjMgQgAAEIQAACEDCWABLTWL7kDgEIQAACEIAABCxIAIlpwUrHZQhAAAIQgAAEIGAsASSmsXzJHQIQgAAEIAABCFiQABLTgpX+/+3YMQqEQBREQQb2/lce0w0N7OhVLg1dX6RRZQIECBAgQIDAVsDE3PpKJ0CAAAECBAgEBUzM4NFVJkCAAAECBAhsBUzMra90AgQIECBAgEBQwMQMHl1lAgQIECBAgMBWwMTc+konQIAAAQIECAQFTMzg0VUmQIAAAQIECGwFTMytr3QCBAgQIECAQFDAxAweXWUCBAgQIECAwFbAxNz6SidAgAABAgQIBAVMzODRVSZAgAABAgQIbAVMzK2vdAIECBAgQIBAUMDEDB5dZQIECBAgQIDAVsDE3PpKJ0CAAAECBAgEBUzM4NFVJkCAAAECBAhsBUzMra90AgQIECBAgEBQwMQMHl1lAgQIECBAgMBWwMTc+konQIAAAQIECAQFTMzg0VUmQIAAAQIECGwFTMytr3QCBAgQIECAQFDAxAweXWUCBAgQIECAwFbAxNz6SidAgAABAgQIBAVMzODRVSZAgAABAgQIbAVMzK2vdAIECBAgQIBAUMDEDB5dZQIECBAgQIDAVsDE3PpKJ0CAAAECBAgEBUzM4NFVJkCAAAECBAhsBUzMra90AgQIECBAgEBQwMQMHl1lAgQIECBAgMBWwMTc+konQIAAAQIECAQFTMzg0VUmQIAAAQIECGwFTMytr3QCBAgQIECAQFDAxAweXWUCBAgQIECAwFbAxNz6SidAgAABAgQIBAVMzODRVSZAgAABAgQIbAVMzK2vdAIECBAgQIBAUMDEDB5dZQIECBAgQIDAVsDE3PpKJ0CAAAECBAgEBUzM4NFVJkCAAAECBAhsBUzMra90AgQIECBAgEBQ4Pff+ZwTJFCZAAECLwV8JF9CeYwAAQL+YnoHCBAgQIAAAQIEPhY4996PI8URIECAAAECBAi0BfzFbN9fewIECBAgQIDAQMDEHKCKJECAAAECBAi0BR63JAmmxp+2RQAAAABJRU5ErkJggg==;" vertex="1" parent="1">
          <mxGeometry x="540" y="90" width="886" height="717" as="geometry" />
        </mxCell>
        <mxCell id="07kiqGvhEyyWiOE_7tN8-3" value="&lt;div&gt;Создают, редактируют и структурируют документацию.&lt;/div&gt;&lt;div&gt;&lt;br&gt;&lt;/div&gt;" style="text;html=1;align=center;verticalAlign=middle;whiteSpace=wrap;rounded=0;" vertex="1" parent="1">
          <mxGeometry x="800" y="490" width="60" height="30" as="geometry" />
        </mxCell>
        <mxCell id="07kiqGvhEyyWiOE_7tN8-4" value="Управляют версиями документов." style="text;html=1;align=center;verticalAlign=middle;whiteSpace=wrap;rounded=0;" vertex="1" parent="1">
          <mxGeometry x="690" y="540" width="60" height="30" as="geometry" />
        </mxCell>
        <mxCell id="07kiqGvhEyyWiOE_7tN8-6" value="Назначают права доступа" style="text;whiteSpace=wrap;" vertex="1" parent="1">
          <mxGeometry x="780" y="560" width="180" height="40" as="geometry" />
        </mxCell>
        <mxCell id="07kiqGvhEyyWiOE_7tN8-7" value="Почему нет автоматической синхронизации с репозиторием?" style="text;whiteSpace=wrap;" vertex="1" parent="1">
          <mxGeometry x="1070" y="485" width="190" height="40" as="geometry" />
        </mxCell>
        <mxCell id="07kiqGvhEyyWiOE_7tN8-8" value="Интерфейс слишком перегружен — сложно ориентироваться" style="text;whiteSpace=wrap;" vertex="1" parent="1">
          <mxGeometry x="1070" y="540" width="190" height="40" as="geometry" />
        </mxCell>
        <mxCell id="07kiqGvhEyyWiOE_7tN8-9" value="Документация устарела, обнови раздел API" style="text;whiteSpace=wrap;" vertex="1" parent="1">
          <mxGeometry x="560" y="250" width="180" height="40" as="geometry" />
        </mxCell>
        <mxCell id="07kiqGvhEyyWiOE_7tN8-10" value="Поиск не находит статьи по ключевым словам" style="text;whiteSpace=wrap;" vertex="1" parent="1">
          <mxGeometry x="600" y="370" width="180" height="40" as="geometry" />
        </mxCell>
        <mxCell id="07kiqGvhEyyWiOE_7tN8-11" value="Новая система сократила время на публикацию вдвое!" style="text;whiteSpace=wrap;" vertex="1" parent="1">
          <mxGeometry x="560" y="428.5" width="180" height="40" as="geometry" />
        </mxCell>
        <mxCell id="07kiqGvhEyyWiOE_7tN8-12" value="Интеграцию с GitHub" style="text;whiteSpace=wrap;" vertex="1" parent="1">
          <mxGeometry x="1210" y="240" width="150" height="40" as="geometry" />
        </mxCell>
        <mxCell id="07kiqGvhEyyWiOE_7tN8-13" value="Инструменты для совместного редактирования в реальном времени" style="text;whiteSpace=wrap;" vertex="1" parent="1">
          <mxGeometry x="1210" y="400" width="150" height="40" as="geometry" />
        </mxCell>
        <mxCell id="07kiqGvhEyyWiOE_7tN8-15" value="Панель управления версиями" style="text;whiteSpace=wrap;" vertex="1" parent="1">
          <mxGeometry x="1170" y="280" width="150" height="40" as="geometry" />
        </mxCell>
        <mxCell id="07kiqGvhEyyWiOE_7tN8-16" value="Почему я трачу столько времени на форматирование? Это можно автоматизировать!" style="text;whiteSpace=wrap;" vertex="1" parent="1">
          <mxGeometry x="700" y="100" width="150" height="40" as="geometry" />
        </mxCell>
        <mxCell id="07kiqGvhEyyWiOE_7tN8-17" value="Боюсь потерять изменения, если система зависнет" style="text;whiteSpace=wrap;" vertex="1" parent="1">
          <mxGeometry x="1080" y="100" width="150" height="40" as="geometry" />
        </mxCell>
        <mxCell id="07kiqGvhEyyWiOE_7tN8-18" value="Теперь можно работать с разынми версиями документов" style="text;whiteSpace=wrap;" vertex="1" parent="1">
          <mxGeometry x="860" y="190" width="350" height="40" as="geometry" />
        </mxCell>
        <mxCell id="07kiqGvhEyyWiOE_7tN8-19" value="&lt;span style=&quot;white-space: normal;&quot;&gt;&lt;span style=&quot;white-space:pre&quot;&gt;&#x9;&lt;/span&gt;Ручное копирование между форматами&lt;/span&gt;" style="text;html=1;align=center;verticalAlign=middle;whiteSpace=wrap;rounded=0;" vertex="1" parent="1">
          <mxGeometry x="545" y="740" width="290" height="30" as="geometry" />
        </mxCell>
        <mxCell id="07kiqGvhEyyWiOE_7tN8-20" value="Потеря данных из-за сбоев" style="text;html=1;align=center;verticalAlign=middle;whiteSpace=wrap;rounded=0;" vertex="1" parent="1">
          <mxGeometry x="520" y="700" width="290" height="30" as="geometry" />
        </mxCell>
        <mxCell id="07kiqGvhEyyWiOE_7tN8-21" value="Сложности с интеграцией в существующий стек инструментов" style="text;html=1;align=center;verticalAlign=middle;whiteSpace=wrap;rounded=0;" vertex="1" parent="1">
          <mxGeometry x="560" y="650" width="240" height="30" as="geometry" />
        </mxCell>
        <mxCell id="07kiqGvhEyyWiOE_7tN8-22" value="Невозможность отследить прогресс документирования" style="text;html=1;align=center;verticalAlign=middle;whiteSpace=wrap;rounded=0;" vertex="1" parent="1">
          <mxGeometry x="782.5" y="680" width="175" height="30" as="geometry" />
        </mxCell>
        <mxCell id="07kiqGvhEyyWiOE_7tN8-23" value="Возможность работать в Markdown без отвлечения на код" style="text;html=1;align=center;verticalAlign=middle;whiteSpace=wrap;rounded=0;" vertex="1" parent="1">
          <mxGeometry x="1220" y="690" width="175" height="30" as="geometry" />
        </mxCell>
        <mxCell id="07kiqGvhEyyWiOE_7tN8-26" value="Гибкие настройки ролей (редактор, рецензент, гость)" style="text;html=1;align=center;verticalAlign=middle;whiteSpace=wrap;rounded=0;" vertex="1" parent="1">
          <mxGeometry x="1010" y="740" width="175" height="30" as="geometry" />
        </mxCell>
        <mxCell id="07kiqGvhEyyWiOE_7tN8-27" value="Единая точка доступа к актуальной документации" style="text;html=1;align=center;verticalAlign=middle;whiteSpace=wrap;rounded=0;" vertex="1" parent="1">
          <mxGeometry x="995" y="660" width="175" height="30" as="geometry" />
        </mxCell>
      </root>
    </mxGraphModel>
  </diagram>
</mxfile>
